<svg version="1.1" xmlns="http://www.w3.org/2000/svg" viewBox="0 0 480 700.0476225919463" width="480" height="700.0476225919463">
  <!-- svg-source:excalidraw -->
  
  <defs>
    <style>
      @font-face {
        font-family: "Virgil";
        src: url("https://excalidraw.com/Virgil.woff2");
      }
      @font-face {
        font-family: "Cascadia";
        src: url("https://excalidraw.com/Cascadia.woff2");
      }
    </style>
  </defs>
  <g stroke-linecap="round" transform="translate(210 10) rotate(0 40 40)"><path d="M42.65 0.26 C50.03 0.13, 59.56 3.33, 65.52 8.4 C71.47 13.47, 76.44 23.15, 78.4 30.67 C80.35 38.2, 80.07 46.38, 77.25 53.52 C74.44 60.66, 67.87 69.25, 61.48 73.51 C55.09 77.78, 46.51 79.59, 38.9 79.09 C31.29 78.59, 22.15 75.18, 15.82 70.52 C9.5 65.85, 3.2 58.31, 0.95 51.1 C-1.3 43.89, -0.28 34.45, 2.33 27.25 C4.95 20.05, 10.12 12.39, 16.65 7.92 C23.19 3.45, 36.34 1.56, 41.56 0.42 C46.78 -0.73, 45.77 0.53, 47.99 1.06 C50.21 1.58, 54.81 2.81, 54.87 3.57 M25.31 2.91 C32.21 -0.25, 44.23 -1.48, 51.81 0.67 C59.39 2.81, 65.97 9.58, 70.78 15.79 C75.6 21.99, 80.22 30.31, 80.68 37.91 C81.14 45.51, 78.13 54.64, 73.55 61.39 C68.97 68.14, 60.68 75.38, 53.19 78.41 C45.69 81.43, 35.75 81.48, 28.57 79.56 C21.39 77.65, 14.77 73.1, 10.12 66.93 C5.47 60.75, 1.28 50.29, 0.68 42.52 C0.07 34.75, 2.53 27.01, 6.48 20.29 C10.42 13.57, 20.74 5.26, 24.33 2.21 C27.92 -0.84, 27.4 1.95, 28.02 1.99 C28.63 2.02, 27.85 1.56, 28.03 2.44" stroke="#000000" stroke-width="1" fill="none"></path></g><g transform="translate(241 27) rotate(0 9 23)"><text x="9" y="32" font-family="Virgil, Segoe UI Emoji" font-size="36px" fill="#000000" text-anchor="middle" style="white-space: pre;" direction="ltr">*</text></g><g stroke-linecap="round" transform="translate(10 130) rotate(0 40 40)"><path d="M42.35 0.69 C50.03 0.63, 60.71 4, 66.66 8.99 C72.61 13.98, 76.42 23.05, 78.04 30.62 C79.66 38.18, 79.24 47.1, 76.4 54.38 C73.56 61.67, 67.49 70.15, 61 74.33 C54.52 78.51, 45.02 79.9, 37.5 79.47 C29.99 79.03, 22.08 76.45, 15.91 71.73 C9.75 67.02, 2.7 58.8, 0.54 51.16 C-1.63 43.53, 0.15 33.16, 2.92 25.93 C5.69 18.69, 10.94 12.12, 17.17 7.75 C23.4 3.38, 35.07 0.87, 40.32 -0.27 C45.56 -1.41, 46.29 0.34, 48.66 0.89 C51.04 1.44, 54.75 2.37, 54.56 3.02 M24.31 2.04 C31.18 -1.07, 41.91 0.03, 49.34 1.79 C56.78 3.55, 64.02 6.6, 68.93 12.61 C73.83 18.61, 77.66 29.73, 78.78 37.84 C79.89 45.94, 79.18 54.88, 75.64 61.24 C72.1 67.6, 64.74 72.96, 57.54 75.98 C50.35 79.01, 40.12 80.71, 32.48 79.38 C24.84 78.04, 16.99 73.82, 11.72 67.96 C6.44 62.1, 2.01 52.27, 0.81 44.22 C-0.4 36.17, 0.84 26.53, 4.49 19.66 C8.14 12.8, 19.31 5.64, 22.7 3.04 C26.1 0.43, 24.21 4.17, 24.87 4.05 C25.52 3.93, 26.57 1.68, 26.64 2.29" stroke="#000000" stroke-width="1" fill="none"></path></g><g transform="translate(37 147) rotate(0 13 23)"><text x="13" y="32" font-family="Virgil, Segoe UI Emoji" font-size="36px" fill="#000000" text-anchor="middle" style="white-space: pre;" direction="ltr">B</text></g><g stroke-linecap="round"><g transform="translate(238.6037713507385 89.3843366400115) rotate(0 -88.40956264687782 20.174007416967328)"><path d="M-0.55 -0.2 C-29.96 6.61, -147.65 33.65, -177.23 40.52 M1.37 -1.34 C-28.14 5.64, -148.7 34.41, -178.19 41.69" stroke="#000000" stroke-width="1" fill="none"></path></g><g transform="translate(238.6037713507385 89.3843366400115) rotate(0 -88.40956264687782 20.174007416967328)"><path d="M-153.53 25.05 C-160.36 27.54, -165.38 31.32, -180.03 41.18 M-152.75 24.18 C-160.64 28.69, -165.35 34.51, -177.59 42.65" stroke="#000000" stroke-width="1" fill="none"></path></g><g transform="translate(238.6037713507385 89.3843366400115) rotate(0 -88.40956264687782 20.174007416967328)"><path d="M-148.7 45 C-156.63 42.72, -162.79 41.76, -180.03 41.18 M-147.92 44.13 C-156.94 43.45, -162.92 44.09, -177.59 42.65" stroke="#000000" stroke-width="1" fill="none"></path></g></g><g stroke-linecap="round" transform="translate(210 130) rotate(0 40 40)"><path d="M46.86 1.72 C54.26 2.74, 64.33 7.39, 69.77 12.87 C75.2 18.35, 78.46 27.02, 79.48 34.62 C80.49 42.22, 79.55 51.61, 75.87 58.45 C72.19 65.29, 64.43 72.22, 57.39 75.66 C50.35 79.09, 41.35 80.23, 33.62 79.06 C25.89 77.89, 16.5 74.1, 11.02 68.65 C5.54 63.2, 1.95 54.18, 0.72 46.38 C-0.5 38.58, 0.08 28.67, 3.68 21.85 C7.29 15.04, 15.4 9.06, 22.35 5.5 C29.3 1.93, 40.14 1.06, 45.39 0.45 C50.63 -0.15, 51.6 1, 53.81 1.85 C56.02 2.71, 58.84 4.73, 58.65 5.6 M22.71 4.51 C29.41 0.64, 39.97 -1.06, 47.45 0.1 C54.92 1.26, 62.34 5.88, 67.56 11.47 C72.78 17.06, 77.62 25.83, 78.78 33.64 C79.93 41.45, 77.91 51.3, 74.46 58.32 C71.02 65.35, 64.81 72.4, 58.12 75.79 C51.43 79.17, 42.14 79.75, 34.32 78.64 C26.51 77.53, 16.85 74.21, 11.24 69.11 C5.63 64.01, 1.73 55.52, 0.66 48.03 C-0.41 40.55, 1.41 31.26, 4.81 24.2 C8.22 17.14, 18.16 8.84, 21.07 5.68 C23.98 2.52, 22.04 5.56, 22.27 5.24 C22.49 4.93, 22.09 3.16, 22.41 3.8" stroke="#000000" stroke-width="1" fill="none"></path></g><g transform="translate(239 147) rotate(0 11 23)"><text x="11" y="32" font-family="Virgil, Segoe UI Emoji" font-size="36px" fill="#000000" text-anchor="middle" style="white-space: pre;" direction="ltr">S</text></g><g stroke-linecap="round"><g transform="translate(249.96432443757726 90.99998447870735) rotate(0 0.14457966552942025 18.770616446510303)"><path d="M1.13 -0.27 C1.18 5.83, 0.43 31.46, 0.1 37.65 M0.26 -1.46 C0.18 5.33, -1.04 32.5, -0.81 39" stroke="#000000" stroke-width="1" fill="none"></path></g><g transform="translate(249.96432443757726 90.99998447870735) rotate(0 0.14457966552942025 18.770616446510303)"><path d="M-7.54 21.19 C-5.72 24.73, -5.23 30.28, -0.8 40.53 M-6.66 21.22 C-5.12 24.54, -4.95 28.45, -1.23 39.24" stroke="#000000" stroke-width="1" fill="none"></path></g><g transform="translate(249.96432443757726 90.99998447870735) rotate(0 0.14457966552942025 18.770616446510303)"><path d="M5.46 21.33 C3.59 24.96, 0.41 30.47, -0.8 40.53 M6.34 21.37 C5.19 24.65, 2.68 28.53, -1.23 39.24" stroke="#000000" stroke-width="1" fill="none"></path></g></g><g stroke-linecap="round" transform="translate(390 130) rotate(0 40 40)"><path d="M53.8 2.78 C60.69 5.05, 68.39 11.54, 72.81 18.1 C77.23 24.66, 80.61 34.48, 80.32 42.16 C80.04 49.83, 76 58.26, 71.13 64.17 C66.26 70.07, 58.41 75.34, 51.11 77.6 C43.8 79.85, 34.61 80.17, 27.3 77.7 C19.98 75.23, 11.66 69, 7.23 62.76 C2.8 56.52, 0.7 48.04, 0.71 40.27 C0.72 32.51, 2.67 22.59, 7.28 16.18 C11.89 9.76, 20.81 4.18, 28.38 1.81 C35.94 -0.56, 46.76 0.77, 52.68 1.93 C58.6 3.1, 60.92 6.59, 63.89 8.79 C66.87 10.98, 71.01 14.78, 70.53 15.11 M35.53 -0.03 C42.86 -1.1, 53.55 1.51, 60.62 5.35 C67.7 9.19, 75.15 16, 78 23.01 C80.85 30.02, 79.74 39.7, 77.74 47.39 C75.73 55.09, 71.73 63.66, 65.98 69.18 C60.23 74.71, 50.73 79.5, 43.24 80.55 C35.75 81.59, 27.79 79.56, 21.02 75.46 C14.24 71.36, 5.92 63.24, 2.59 55.94 C-0.73 48.64, -0.49 39.28, 1.07 31.65 C2.62 24.03, 6.43 15.48, 11.93 10.21 C17.43 4.95, 29.98 1.98, 34.07 0.07 C38.16 -1.83, 35.76 -1.58, 36.47 -1.22 C37.18 -0.85, 38.47 1.23, 38.35 2.25" stroke="#000000" stroke-width="1" fill="none"></path></g><g transform="translate(415.5 147) rotate(0 14.5 23)"><text x="14.5" y="32" font-family="Virgil, Segoe UI Emoji" font-size="36px" fill="#000000" text-anchor="middle" style="white-space: pre;" direction="ltr">T</text></g><g stroke-linecap="round"><g transform="translate(260.5156169339449 89.62854779699262) rotate(0 80.12744194552374 21.00662303131628)"><path d="M0.87 0.92 C27.04 7.48, 131.73 33.79, 158.12 40.33 M-0.14 0.36 C26.32 7, 133.94 34.85, 160.39 41.65" stroke="#000000" stroke-width="1" fill="none"></path></g><g transform="translate(260.5156169339449 89.62854779699262) rotate(0 80.12744194552374 21.00662303131628)"><path d="M132.07 43.14 C141.43 43.6, 152.73 42.56, 161.09 43.07 M129.79 44.95 C137.92 43.83, 145.19 43.89, 161 41.22" stroke="#000000" stroke-width="1" fill="none"></path></g><g transform="translate(260.5156169339449 89.62854779699262) rotate(0 80.12744194552374 21.00662303131628)"><path d="M137.2 23.27 C144.73 31.5, 154.04 38.18, 161.09 43.07 M134.91 25.08 C141.7 28.91, 147.68 33.95, 161 41.22" stroke="#000000" stroke-width="1" fill="none"></path></g></g><g stroke-linecap="round" transform="translate(130 250) rotate(0 40 40)"><path d="M27.94 1.6 C34.98 -0.81, 45.54 0.24, 52.98 2.81 C60.43 5.38, 67.97 10.61, 72.61 17 C77.24 23.4, 80.8 33.32, 80.79 41.17 C80.79 49.03, 77.32 57.98, 72.58 64.13 C67.83 70.28, 59.61 75.57, 52.31 78.07 C45.02 80.56, 36.24 81.51, 28.82 79.11 C21.4 76.7, 12.5 69.89, 7.79 63.64 C3.07 57.4, 0.76 49.42, 0.53 41.62 C0.3 33.81, 2.18 23.27, 6.42 16.82 C10.65 10.36, 21.87 5.38, 25.95 2.86 C30.02 0.35, 29.59 1.95, 30.87 1.73 C32.15 1.5, 33.62 0.87, 33.64 1.52 M21.69 4.79 C27.6 1.11, 36.56 0.01, 44.42 0.82 C52.27 1.63, 63.07 4.49, 68.8 9.66 C74.54 14.82, 77.34 23.8, 78.84 31.79 C80.35 39.77, 81.14 50.35, 77.81 57.54 C74.48 64.73, 65.99 71.29, 58.85 74.94 C51.71 78.59, 42.34 80.38, 34.97 79.46 C27.61 78.54, 20.17 74.32, 14.66 69.4 C9.15 64.48, 3.69 57.41, 1.91 49.93 C0.13 42.45, 1.28 31.62, 3.97 24.51 C6.66 17.39, 15.27 10.51, 18.03 7.23 C20.79 3.95, 20.16 5.13, 20.53 4.82 C20.89 4.51, 20.03 4.79, 20.22 5.39" stroke="#000000" stroke-width="1" fill="none"></path></g><g transform="translate(158 267) rotate(0 12 23)"><text x="12" y="32" font-family="Virgil, Segoe UI Emoji" font-size="36px" fill="#000000" text-anchor="middle" style="white-space: pre;" direction="ltr">E</text></g><g stroke-linecap="round"><g transform="translate(250 210) rotate(0 -39.846478094523775 19.70233026019298)"><path d="M-0.69 -0.92 C-14.01 5.71, -67.61 32.41, -80.84 39.21 M1.14 1.2 C-11.72 8.03, -64.89 33.68, -78.56 40.33" stroke="#000000" stroke-width="1" fill="none"></path></g><g transform="translate(250 210) rotate(0 -39.846478094523775 19.70233026019298)"><path d="M-59.22 17.4 C-63.77 23.37, -67.36 29.5, -78.72 40.44 M-57.15 18.65 C-65.37 27.9, -72.38 35.02, -78.87 40.85" stroke="#000000" stroke-width="1" fill="none"></path></g><g transform="translate(250 210) rotate(0 -39.846478094523775 19.70233026019298)"><path d="M-50.26 35.87 C-56.72 37.65, -62.31 39.67, -78.72 40.44 M-48.19 37.12 C-59.96 39.39, -70.38 39.5, -78.87 40.85" stroke="#000000" stroke-width="1" fill="none"></path></g></g><g stroke-linecap="round" transform="translate(290 250) rotate(0 40 40)"><path d="M29.48 2.02 C36.29 -0.58, 46.25 -0.8, 53.51 1.91 C60.76 4.63, 68.51 11.74, 73.01 18.33 C77.52 24.92, 80.59 33.93, 80.53 41.45 C80.47 48.96, 77.37 57.34, 72.66 63.41 C67.94 69.49, 59.77 75.35, 52.25 77.89 C44.72 80.43, 34.81 81, 27.48 78.65 C20.16 76.3, 13.02 70.06, 8.28 63.78 C3.54 57.5, -0.77 48.99, -0.97 40.99 C-1.18 32.99, 2.25 22.36, 7.03 15.78 C11.8 9.2, 22.65 4.03, 27.67 1.5 C32.7 -1.03, 34.08 0.51, 37.19 0.59 C40.3 0.67, 46.14 1.57, 46.34 2 M48.67 1.71 C55.56 2.86, 64.18 7.06, 69.19 12.84 C74.19 18.61, 77.67 28.26, 78.69 36.36 C79.71 44.45, 78.87 54.47, 75.31 61.42 C71.76 68.37, 64.84 75.07, 57.34 78.07 C49.84 81.07, 38.06 81.22, 30.31 79.42 C22.55 77.62, 15.69 72.96, 10.82 67.27 C5.94 61.58, 2.16 53.07, 1.06 45.27 C-0.04 37.47, 0.72 27.18, 4.2 20.49 C7.68 13.8, 14.87 8.31, 21.93 5.12 C28.99 1.94, 42.02 1.95, 46.54 1.4 C51.06 0.86, 48.54 1.93, 49.06 1.84 C49.58 1.75, 49.96 0.51, 49.68 0.85" stroke="#000000" stroke-width="1" fill="none"></path></g><g transform="translate(320 267) rotate(0 10 23)"><text x="10" y="32" font-family="Virgil, Segoe UI Emoji" font-size="36px" fill="#000000" text-anchor="middle" style="white-space: pre;" direction="ltr">H</text></g><g stroke-linecap="round"><g transform="translate(250.65289596132936 209.7355516714789) rotate(0 39.13989720690597 19.903284667486474)"><path d="M-0.65 0.86 C12.37 7.33, 65.56 33.19, 78.93 39.54 M1.21 0.26 C14.01 6.3, 65.01 30.92, 78 37.56" stroke="#000000" stroke-width="1" fill="none"></path></g><g transform="translate(250.65289596132936 209.7355516714789) rotate(0 39.13989720690597 19.903284667486474)"><path d="M49.62 34.31 C59.54 36.72, 69.48 35.79, 77.88 39.21 M47.45 34.69 C58.44 35.38, 70.04 37.09, 78.38 36.59" stroke="#000000" stroke-width="1" fill="none"></path></g><g transform="translate(250.65289596132936 209.7355516714789) rotate(0 39.13989720690597 19.903284667486474)"><path d="M58.72 15.92 C65.43 24.99, 72.05 30.76, 77.88 39.21 M56.55 16.3 C64.4 23.57, 72.77 31.8, 78.38 36.59" stroke="#000000" stroke-width="1" fill="none"></path></g></g><g stroke-linecap="round" transform="translate(50 370) rotate(0 40 40)"><path d="M6.57 17.64 C6.57 17.64, 6.57 17.64, 6.57 17.64 M6.57 17.64 C6.57 17.64, 6.57 17.64, 6.57 17.64 M4.33 26.66 C12.41 18.48, 22.75 7.52, 26.82 1.59 M4.93 27.26 C12.11 17.93, 20.4 7.27, 26.1 2.84 M3.52 33.45 C7.75 27.43, 18.17 18.31, 28 5.06 M2.79 35.37 C12.3 24.9, 21.13 13.53, 29.92 3.46 M1.12 40.48 C15.01 27.35, 24.03 15, 35.24 3.36 M1.29 42.17 C13.74 26.8, 27.92 11.67, 34.27 3.46 M1.63 47.43 C11.01 38.99, 19.6 28.96, 40.24 5.13 M1.96 47.05 C12.07 36.75, 20.43 25.21, 40.2 3.99 M4.08 52.26 C13.42 38.3, 22.07 27.85, 45.52 1.44 M3.27 51.28 C19.42 33.44, 35.66 14.77, 44.96 3.7 M4.49 53.38 C18.69 40.28, 30.67 29.19, 52.88 2.49 M4.87 54.82 C20.11 38.75, 35.78 20.83, 51.33 1.09 M5.02 61.56 C22.18 41.53, 37.34 24.66, 53.98 4.84 M7.52 60.02 C18.91 45.43, 30.52 32.9, 55.93 4.48 M7.77 62.91 C19.2 49.68, 29.73 37.35, 59.99 5.02 M8.61 65.27 C24.26 45.18, 39.06 27.7, 57.62 7.37 M9.28 65.82 C21.81 55.25, 32.13 41.57, 63.5 8.02 M11.54 67.64 C28.05 48.81, 45.35 28.7, 61.3 9.59 M14.33 67.84 C28.85 51.1, 43.07 34.73, 65.05 9.73 M15.21 68.59 C34.25 47.61, 52.31 25.69, 65.11 11.52 M18.46 70.72 C36.15 49.55, 54.19 29.94, 68.84 13.62 M17.42 72.56 C33.59 54.21, 48.75 34.72, 67.96 13.43 M21.7 74.73 C36.93 53.68, 52.35 35.93, 70.6 16.16 M20.27 74.16 C37.72 56.02, 53.66 37.41, 72.21 16.66 M25.15 75.93 C40.13 59.25, 56.55 43.01, 75.41 18.29 M25.6 75.09 C34.97 64.14, 46.34 50.66, 75.23 17.79 M28.71 77.09 C41.5 61.55, 57.93 43.61, 77.5 22.33 M28.46 77.74 C40.81 63.82, 53.52 50.5, 76.01 23.3 M30.91 80.59 C50.41 59.51, 68.82 36.9, 75.98 28.66 M31.76 79.92 C41.86 67.94, 53.4 54.29, 76.65 26.92 M38.72 79.89 C51.15 64.71, 61.2 51.22, 77.47 31.19 M37.84 80.94 C48.25 68.13, 58.94 55.21, 79.77 30.85 M41.45 79.24 C53.1 68.93, 60.17 58.65, 79.14 34.78 M43.13 81.11 C56.6 65.79, 69.29 49.04, 79.38 35.88 M46.44 81.83 C61.41 64.42, 71.1 51.28, 79.9 40.92 M47.63 80.55 C56.43 69.39, 65.25 60.81, 80.75 40.82 M56.24 78.22 C60.8 70.98, 66.39 67.02, 78.89 50.97 M54.94 77.4 C63.04 69.06, 69.67 61.69, 78.82 50.42 M70.3 67.56 C72.61 64.09, 74.48 62.36, 75.67 58.77 M69.96 66.63 C71.83 65.03, 74.16 62.12, 76.35 59.25" stroke="#82c91e" stroke-width="0.5" fill="none"></path><path d="M27.91 2.6 C34.53 -0.39, 44.15 -1.01, 51.43 1.28 C58.7 3.57, 66.86 9.92, 71.57 16.35 C76.27 22.77, 79.44 31.95, 79.65 39.84 C79.85 47.73, 77.02 57.45, 72.78 63.68 C68.55 69.92, 61.6 74.88, 54.23 77.25 C46.87 79.63, 36.25 79.89, 28.59 77.94 C20.93 75.98, 12.99 71.58, 8.26 65.52 C3.54 59.46, 0.54 49.53, 0.23 41.58 C-0.07 33.63, 2.35 24.39, 6.42 17.81 C10.5 11.23, 19.94 4.97, 24.7 2.1 C29.46 -0.77, 32.4 0.7, 34.97 0.59 C37.53 0.47, 40.24 0.88, 40.08 1.38 M25.74 4.4 C32.37 1.42, 41.54 0.75, 48.73 2.36 C55.92 3.96, 63.81 8.28, 68.89 14.02 C73.96 19.76, 78.23 29.2, 79.17 36.77 C80.11 44.35, 78.54 52.86, 74.52 59.46 C70.51 66.07, 62.19 73.14, 55.08 76.42 C47.98 79.7, 39.2 80.81, 31.9 79.15 C24.59 77.5, 16.46 72.14, 11.25 66.49 C6.04 60.83, 1.72 52.76, 0.62 45.23 C-0.48 37.7, 0.74 28.36, 4.65 21.3 C8.56 14.25, 20.84 5.75, 24.08 2.92 C27.32 0.09, 23.76 4.37, 24.09 4.33 C24.41 4.3, 25.42 2.16, 26.02 2.72" stroke="#000000" stroke-width="1" fill="none"></path></g><g transform="translate(78 387) rotate(0 12 23)"><text x="12" y="32" font-family="Virgil, Segoe UI Emoji" font-size="36px" fill="#000000" text-anchor="middle" style="white-space: pre;" direction="ltr">A</text></g><g stroke-linecap="round"><g transform="translate(173.76758931810923 330.8265265572528) rotate(0 -31.414860583964867 22.716447652418665)"><path d="M-0.75 0.81 C-11.23 8.21, -52.9 38.04, -63.31 45.25 M1.06 0.19 C-9.49 7.13, -53.12 35.81, -63.89 43.26" stroke="#000000" stroke-width="1" fill="none"></path></g><g transform="translate(173.76758931810923 330.8265265572528) rotate(0 -31.414860583964867 22.716447652418665)"><path d="M-44.86 20.19 C-50.32 26.7, -57.02 30.58, -65.02 43.59 M-45.36 19.9 C-51.24 25.17, -55.95 31.58, -63.07 43.46" stroke="#000000" stroke-width="1" fill="none"></path></g><g transform="translate(173.76758931810923 330.8265265572528) rotate(0 -31.414860583964867 22.716447652418665)"><path d="M-33.42 37.22 C-42.05 39.12, -51.8 38.46, -65.02 43.59 M-33.92 36.94 C-42.9 37.69, -50.65 39.58, -63.07 43.46" stroke="#000000" stroke-width="1" fill="none"></path></g></g><g stroke-linecap="round" transform="translate(190 370) rotate(0 40 40)"><path d="M37.65 -0.63 C45.16 -1.7, 54.46 0.92, 61.15 5.22 C67.84 9.53, 74.98 17.99, 77.8 25.21 C80.63 32.42, 80.1 41.17, 78.11 48.52 C76.12 55.87, 71.6 64.17, 65.87 69.31 C60.14 74.45, 51.42 78.37, 43.73 79.37 C36.05 80.37, 26.46 79.01, 19.74 75.29 C13.02 71.58, 6.59 64.36, 3.41 57.1 C0.24 49.83, -0.89 39.28, 0.68 31.7 C2.25 24.12, 7.22 16.95, 12.83 11.61 C18.45 6.27, 29.46 1.49, 34.39 -0.33 C39.32 -2.16, 39.88 0.15, 42.42 0.65 C44.95 1.14, 49.46 1.99, 49.57 2.66 M28.12 2.39 C34.83 -0.4, 45.34 -0.44, 52.83 1.98 C60.32 4.4, 68.7 10.38, 73.06 16.92 C77.42 23.45, 79.17 33.44, 78.99 41.17 C78.82 48.9, 76.16 57.22, 72.01 63.28 C67.87 69.35, 61.34 74.98, 54.13 77.58 C46.92 80.19, 36.57 81.24, 28.74 78.91 C20.92 76.57, 11.79 69.74, 7.18 63.57 C2.58 57.39, 0.97 49.62, 1.1 41.85 C1.23 34.08, 3.69 23.4, 7.95 16.94 C12.2 10.48, 23.39 5.82, 26.65 3.09 C29.91 0.37, 27.12 0.44, 27.52 0.59 C27.93 0.74, 28.89 2.95, 29.08 3.98" stroke="#000000" stroke-width="1" fill="none"></path></g><g transform="translate(219 387) rotate(0 11 23)"><text x="11" y="32" font-family="Virgil, Segoe UI Emoji" font-size="36px" fill="#000000" text-anchor="middle" style="white-space: pre;" direction="ltr">L</text></g><g stroke-linecap="round"><g transform="translate(170.8422111800303 330.9913488473877) rotate(0 31.801087821960323 18.984682717704132)"><path d="M-0.17 -0.99 C10.15 5.52, 52.53 32.36, 63.07 38.96 M-1.73 1.11 C8.88 7.28, 54.13 30.7, 65.33 37.19" stroke="#000000" stroke-width="1" fill="none"></path></g><g transform="translate(170.8422111800303 330.9913488473877) rotate(0 31.801087821960323 18.984682717704132)"><path d="M34.01 31.28 C48.44 33.04, 59.46 34.92, 67.19 38.61 M34.99 32.43 C41.5 33.53, 48.84 34.63, 65.9 37.1" stroke="#000000" stroke-width="1" fill="none"></path></g><g transform="translate(170.8422111800303 330.9913488473877) rotate(0 31.801087821960323 18.984682717704132)"><path d="M43.83 13.26 C54.38 22.09, 61.55 31.05, 67.19 38.61 M44.81 14.41 C49.17 19.27, 54.43 24.19, 65.9 37.1" stroke="#000000" stroke-width="1" fill="none"></path></g></g><g stroke-linecap="round" transform="translate(190 490) rotate(0 40 40)"><path d="M27.09 2.35 C33.89 -0.82, 43.39 -1.48, 50.79 0.65 C58.19 2.78, 66.79 8.94, 71.51 15.13 C76.23 21.33, 78.73 30.16, 79.1 37.83 C79.46 45.5, 77.68 54.57, 73.7 61.15 C69.73 67.73, 62.56 74.35, 55.25 77.31 C47.93 80.28, 37.48 80.92, 29.81 78.92 C22.14 76.93, 14.04 71.47, 9.24 65.35 C4.43 59.22, 1.61 49.81, 0.98 42.17 C0.35 34.54, 1.61 26.21, 5.44 19.57 C9.26 12.92, 19.02 5.54, 23.93 2.3 C28.83 -0.95, 31.87 0.39, 34.87 0.1 C37.86 -0.2, 41.85 -0.03, 41.9 0.54 M42.9 0.4 C50.13 0.5, 59.59 3.99, 65.41 8.92 C71.23 13.85, 75.89 22.4, 77.82 30.01 C79.75 37.61, 79.54 47.44, 76.98 54.52 C74.41 61.61, 68.93 68.26, 62.44 72.52 C55.95 76.78, 45.77 80.18, 38.04 80.09 C30.31 80, 22.29 76.68, 16.06 71.97 C9.84 67.26, 2.84 59.33, 0.68 51.83 C-1.48 44.34, 0.31 34.64, 3.1 27 C5.9 19.35, 10.93 10.48, 17.46 5.97 C23.99 1.45, 38.1 0.83, 42.28 -0.11 C46.45 -1.06, 42.27 0, 42.5 0.29 C42.74 0.58, 43.42 0.88, 43.7 1.62" stroke="#000000" stroke-width="1" fill="none"></path></g><g transform="translate(219 507) rotate(0 11 23)"><text x="11" y="32" font-family="Virgil, Segoe UI Emoji" font-size="36px" fill="#000000" text-anchor="middle" style="white-space: pre;" direction="ltr">L</text></g><g stroke-linecap="round"><g transform="translate(230 450) rotate(0 0.23648986050858412 20.06205661019311)"><path d="M-0.36 0.2 C-0.52 6.78, -0.38 33.1, -0.15 39.56 M1.65 -0.75 C1.25 5.99, -1.03 34.12, -1.17 40.87" stroke="#000000" stroke-width="1" fill="none"></path></g><g transform="translate(230 450) rotate(0 0.23648986050858412 20.06205661019311)"><path d="M-6.63 21.48 C-5.55 30.5, -4.38 34.98, -0.41 39.93 M-6.53 21.44 C-4.89 24.89, -4.14 30.33, -1.74 40.68" stroke="#000000" stroke-width="1" fill="none"></path></g><g transform="translate(230 450) rotate(0 0.23648986050858412 20.06205661019311)"><path d="M7.03 22.24 C3.09 30.94, -0.75 35.14, -0.41 39.93 M7.13 22.19 C5.85 25.44, 3.69 30.71, -1.74 40.68" stroke="#000000" stroke-width="1" fill="none"></path></g></g><g stroke-linecap="round" transform="translate(190 610.0476225919463) rotate(0 40 40)"><path d="M17.44 7.21 C17.44 7.21, 17.44 7.21, 17.44 7.21 M17.44 7.21 C17.44 7.21, 17.44 7.21, 17.44 7.21 M7.27 29.11 C7.47 23.35, 12.66 19.25, 22.91 5.55 M5.84 26.63 C10.39 21.25, 16.66 13.51, 24.55 6.15 M5.3 33.47 C13.69 22.47, 21.49 12.4, 32.43 3.56 M4.31 33.68 C12.68 24.74, 19.53 17.26, 31.01 4.31 M3.73 39.86 C14.66 28.66, 26.64 15.84, 38.54 0.1 M5.5 39.64 C12.1 29.7, 21.46 20.54, 38.88 1.19 M5.81 44.56 C16.77 33.26, 28.06 17.99, 42.78 1.15 M5.12 45.08 C20.73 29.01, 35.91 11.02, 43.83 0.46 M4.44 51.12 C16.99 41.39, 25.74 26.61, 49.97 3.14 M5.29 52.99 C17.75 38.23, 30.03 21.83, 48.57 2.91 M7.17 57.01 C23.33 34.56, 40.01 14.02, 51.9 5.37 M7.34 56.21 C21.92 39.11, 37.4 22.03, 51.39 4.54 M7.57 61.4 C25.72 41.97, 40.32 24.01, 56.6 6.72 M9.93 58.86 C26.12 39.55, 44.99 18.19, 57.18 6.03 M11.52 62.26 C24.01 49.81, 36.27 34.08, 58.16 8.84 M11.19 64.24 C27.8 45.09, 43.62 26.38, 60.03 7.66 M14.41 68.29 C26.11 49.68, 42.3 34.67, 64.46 8.84 M12.6 66.41 C30.25 47.31, 46.17 29.01, 62.73 8.65 M16.97 68.68 C25.98 58.77, 35.2 45.6, 68.37 9.44 M14.71 70.73 C34.33 47.24, 53.67 24.83, 66.81 11.15 M17.75 73.26 C38.5 49.74, 58.78 27.92, 70.89 12.97 M18.3 73.64 C29.98 61.45, 39.9 47.11, 69.38 14.81 M21.55 76.9 C38.45 54.24, 58.7 32.4, 70.93 16.01 M20.68 75.88 C38.51 57.09, 55.32 37.04, 71.75 17.23 M25.97 78.51 C41.22 57.29, 59.84 38.53, 73.16 19.09 M24.96 77.16 C35.97 65.42, 47.05 54.05, 75.04 20.39 M30.56 76.72 C38.22 66.19, 51.06 53.49, 74.49 25.12 M28.99 78.54 C47.71 57.86, 65.09 36.99, 75.43 24.75 M33.19 82.02 C49.7 64.43, 64.41 46.13, 78.49 29.59 M32.56 80.31 C47.69 66.17, 61.02 50.51, 78.4 28.19 M35.97 80.21 C50.73 66.1, 65.42 49.17, 81.3 32.27 M37.03 82.19 C49.01 68.9, 58.53 57.26, 81.37 31.43 M44.97 77.38 C58.72 64.83, 71.59 49.25, 78.75 39.13 M45.87 79.96 C56.79 64.19, 70.24 48.98, 80.64 38.66 M53.55 78.84 C59.1 70.65, 66.57 62.99, 78.03 46.26 M51.79 77.16 C61.18 66.69, 70.44 55.63, 79.82 45.19 M59.29 75.5 C64.03 68.59, 73.2 62.99, 77.05 51.32 M58.4 75.2 C65.37 68.04, 73.92 58.83, 78.99 51.63" stroke="#82c91e" stroke-width="0.5" fill="none"></path><path d="M44.24 0.23 C51.64 0.35, 60.87 5.01, 66.74 10.01 C72.61 15.01, 77.8 22.61, 79.44 30.25 C81.08 37.89, 79.64 48.59, 76.57 55.84 C73.49 63.09, 67.56 69.6, 60.98 73.75 C54.41 77.91, 44.8 81.16, 37.15 80.75 C29.49 80.34, 20.89 76.31, 15.07 71.31 C9.25 66.31, 4.31 58.42, 2.21 50.74 C0.11 43.05, -0.08 32.48, 2.47 25.2 C5.03 17.93, 11.07 11.15, 17.55 7.08 C24.02 3.02, 36.19 1.87, 41.32 0.82 C46.45 -0.23, 46.78 0.62, 48.35 0.8 C49.93 0.98, 51.11 1.25, 50.79 1.9 M49.51 1.18 C56.83 2.49, 66.3 7.28, 71.47 13.56 C76.65 19.84, 80.28 30.81, 80.55 38.88 C80.82 46.96, 77.36 55.59, 73.1 62.02 C68.84 68.45, 62.07 74.55, 55 77.47 C47.93 80.4, 38.19 81.65, 30.67 79.56 C23.16 77.48, 14.97 70.93, 9.91 64.96 C4.84 59, 1.15 51.27, 0.28 43.79 C-0.58 36.32, 0.59 26.98, 4.69 20.12 C8.79 13.26, 17.72 5.73, 24.88 2.64 C32.04 -0.45, 43.25 1.76, 47.65 1.59 C52.05 1.43, 50.65 1.58, 51.28 1.66 C51.91 1.75, 51.85 1.31, 51.43 2.11" stroke="#000000" stroke-width="1" fill="none"></path></g><g transform="translate(219 627.0476225919463) rotate(0 11 22.999999999999996)"><text x="11" y="32" font-family="Virgil, Segoe UI Emoji" font-size="36px" fill="#000000" text-anchor="middle" style="white-space: pre;" direction="ltr">S</text></g><g stroke-linecap="round"><g transform="translate(230 570.0476225919463) rotate(0 -0.3438052450474629 20.289470659410583)"><path d="M0.22 0.65 C0.45 7.38, 0.44 33.97, 0.42 40.63 M-1.12 -0.05 C-0.93 6.31, -0.39 32.4, -0.31 38.83" stroke="#000000" stroke-width="1" fill="none"></path></g><g transform="translate(230 570.0476225919463) rotate(0 -0.3438052450474629 20.289470659410583)"><path d="M-6.38 20.86 C-4.81 24.37, -3.29 28.76, 0.72 37.74 M-7.66 19.92 C-4.67 25.46, -3.25 30.67, 0.15 38.7" stroke="#000000" stroke-width="1" fill="none"></path></g><g transform="translate(230 570.0476225919463) rotate(0 -0.3438052450474629 20.289470659410583)"><path d="M7.3 20.62 C5.86 24.21, 4.36 28.66, 0.72 37.74 M6.02 19.68 C5.48 25.26, 3.37 30.53, 0.15 38.7" stroke="#000000" stroke-width="1" fill="none"></path></g></g><g stroke-linecap="round" transform="translate(290 369.06624294371375) rotate(0 40 40)"><path d="M8.04 16.27 C8.04 16.27, 8.04 16.27, 8.04 16.27 M8.04 16.27 C8.04 16.27, 8.04 16.27, 8.04 16.27 M6.98 26.96 C9.93 19.11, 15.9 13.03, 23.14 2.99 M4.4 26.21 C9.75 20.97, 13.2 15.28, 24.51 4.05 M-0.19 37.56 C13.02 22.99, 23.46 11.37, 31.54 1.72 M2.5 35.17 C7.31 28.46, 15.07 21.92, 31.41 2.63 M1.57 40.84 C17.31 25.25, 28.05 10.74, 34.68 3.7 M2.85 41.75 C14.3 26.59, 28.83 11.6, 36.49 1.95 M1.61 48.04 C15.24 32.24, 26.9 19.01, 40.07 2.85 M3.92 47.38 C14.51 31.86, 27.91 17.83, 41.19 1.96 M5.74 50.5 C17.67 34.53, 29.53 21.81, 45.12 3.54 M4.94 51.08 C20.77 32.33, 36.45 13.6, 45.63 3.59 M6.1 57.05 C20.13 41.22, 33.14 22.93, 52.92 3.44 M5.56 54.54 C23.04 37.47, 38.97 17.13, 51.2 4.29 M7.04 59.5 C19.44 48.98, 26.84 36.24, 55.46 5.27 M6.4 60.53 C17.5 48.42, 27.88 36.92, 55.38 3.64 M8.96 63.25 C24.52 44.93, 43.03 25.17, 60.85 4.92 M8.62 65.16 C22.28 48.18, 38.56 31.03, 59.75 6.22 M10.14 68.85 C23.46 51.23, 38.32 37.42, 62.37 8.46 M12.48 66.27 C31.76 44.2, 50.82 21.19, 62.75 8.4 M12.68 69.3 C26.26 56.91, 38.13 44.6, 66.46 11.98 M15.01 70.54 C31.37 50.3, 47.7 32.89, 66.39 10.96 M18.95 72.13 C29.61 60.24, 41.13 47.94, 67.23 14.17 M17.13 72.31 C32.68 53.35, 48.38 34.73, 68.44 13.47 M21.44 76.69 C40.92 51.43, 58.34 30.8, 71.58 17.6 M21.26 74.67 C32.88 58.19, 47.79 43.55, 72.32 16.32 M23.96 75.97 C41.02 58.74, 57.04 41.08, 76.42 18.78 M23.25 78.05 C40.53 56.62, 58.18 36.55, 76.03 18.61 M25.52 79.66 C37.8 68.4, 48.07 56.45, 77.94 22.54 M27.93 79.09 C43.12 63.39, 57.44 45.62, 76.08 23.24 M32.81 80.72 C44.12 65.96, 52.23 54.34, 76.6 26.47 M32.35 79.96 C43.84 66.68, 56.2 51.98, 78.3 27.21 M38.1 80.71 C45.62 70.18, 53.81 61.86, 77.83 32.6 M37.38 79.46 C54.53 60.12, 69.32 42.08, 79.17 32.02 M41.07 78.82 C58.34 62.82, 72.44 46.66, 77.83 36.14 M42.28 78.89 C55.13 66.39, 65.41 54.29, 79.37 38.21 M47.31 79.92 C61.45 63.06, 71.86 49.43, 80.72 43.34 M48.88 79.84 C61.13 66.31, 74.04 51.19, 81.69 42.02 M51.57 79.21 C60.67 71.61, 68.68 60.31, 75.88 54.05 M53.57 79.58 C59.07 73.32, 66.52 66.54, 76 53.72" stroke="#82c91e" stroke-width="0.5" fill="none"></path><path d="M30.51 0.96 C37.56 -1.53, 47.07 -0.04, 54.33 2.68 C61.58 5.4, 69.81 10.74, 74.05 17.28 C78.29 23.81, 80.28 34.07, 79.75 41.88 C79.22 49.69, 75.76 57.99, 70.87 64.12 C65.98 70.26, 57.88 76.24, 50.4 78.68 C42.92 81.11, 33.33 81.32, 25.99 78.71 C18.64 76.11, 10.66 69.46, 6.34 63.07 C2.02 56.67, -0.24 48.18, 0.07 40.35 C0.38 32.52, 3.64 22.54, 8.21 16.08 C12.77 9.62, 23.21 4.17, 27.48 1.58 C31.75 -1, 32.29 0.69, 33.82 0.59 C35.36 0.49, 36.51 0.43, 36.69 0.98 M34.33 -1.11 C41.29 -2.53, 51.12 1.14, 57.97 4.91 C64.82 8.67, 71.77 14.48, 75.43 21.48 C79.08 28.49, 81.14 38.86, 79.92 46.93 C78.69 54.99, 73.6 64.26, 68.06 69.86 C62.51 75.46, 54.51 79.79, 46.64 80.54 C38.76 81.29, 28.03 78.06, 20.83 74.34 C13.63 70.62, 6.69 65.19, 3.42 58.22 C0.16 51.25, 0.14 40.31, 1.23 32.53 C2.32 24.75, 4.59 17.05, 9.99 11.53 C15.39 6, 29.61 1.25, 33.62 -0.62 C37.63 -2.49, 33.53 0.04, 34.04 0.31 C34.56 0.58, 36.49 0.48, 36.7 1.01" stroke="#000000" stroke-width="1" fill="none"></path></g><g transform="translate(318 386.06624294371375) rotate(0 12 23)"><text x="12" y="32" font-family="Virgil, Segoe UI Emoji" font-size="36px" fill="#000000" text-anchor="middle" style="white-space: pre;" direction="ltr">E</text></g><g stroke-linecap="round" transform="translate(290 489.06624294371375) rotate(0 40 40)"><path d="M52.12 1.91 C59.33 3.57, 68.1 9.09, 72.71 15.36 C77.32 21.64, 79.86 31.73, 79.78 39.55 C79.71 47.36, 76.79 55.84, 72.26 62.25 C67.73 68.65, 59.96 75.1, 52.62 77.96 C45.28 80.82, 35.69 81.6, 28.21 79.43 C20.73 77.26, 12.41 71.07, 7.73 64.94 C3.05 58.82, 0.25 50.51, 0.1 42.68 C-0.04 34.86, 2.68 24.71, 6.87 17.99 C11.07 11.27, 18.01 5.14, 25.28 2.36 C32.55 -0.42, 45.53 1.2, 50.46 1.32 C55.4 1.43, 53.52 2.54, 54.87 3.06 C56.23 3.57, 58.85 3.75, 58.6 4.41 M38.04 -0.06 C45.46 -0.7, 55.43 1.41, 62.14 5.82 C68.84 10.24, 75.5 18.72, 78.26 26.46 C81.01 34.2, 80.77 44.6, 78.65 52.26 C76.52 59.92, 71.79 68.01, 65.5 72.42 C59.21 76.84, 48.95 78.58, 40.89 78.76 C32.83 78.94, 23.38 77.81, 17.14 73.5 C10.9 69.2, 6.33 60.29, 3.46 52.94 C0.58 45.6, -2.03 36.9, -0.11 29.41 C1.81 21.92, 8.98 12.9, 14.99 8.02 C21 3.14, 31.67 1.47, 35.96 0.13 C40.25 -1.22, 40.23 -0.04, 40.73 -0.06 C41.23 -0.08, 39.2 -0.67, 38.95 0.01" stroke="#000000" stroke-width="1" fill="none"></path></g><g transform="translate(319 506.06624294371375) rotate(0 11 23)"><text x="11" y="32" font-family="Virgil, Segoe UI Emoji" font-size="36px" fill="#000000" text-anchor="middle" style="white-space: pre;" direction="ltr">L</text></g><g stroke-linecap="round"><g transform="translate(330 449.06624294371375) rotate(0 -0.4133562954515355 20.780979817882184)"><path d="M0.74 0.74 C0.78 7.46, -0.29 33.29, -0.41 39.96 M-0.33 0.09 C-0.43 7.04, -1.5 35.02, -1.57 41.47" stroke="#000000" stroke-width="1" fill="none"></path></g><g transform="translate(330 449.06624294371375) rotate(0 -0.4133562954515355 20.780979817882184)"><path d="M-6.67 21.83 C-6.46 27.21, -3.59 30.35, -1.99 41.88 M-7.64 21.81 C-5.5 26.25, -4.78 31.69, -0.65 41.83" stroke="#000000" stroke-width="1" fill="none"></path></g><g transform="translate(330 449.06624294371375) rotate(0 -0.4133562954515355 20.780979817882184)"><path d="M7.01 22.19 C3.82 27.57, 3.28 30.62, -1.99 41.88 M6.04 22.17 C4.91 26.42, 2.36 31.77, -0.65 41.83" stroke="#000000" stroke-width="1" fill="none"></path></g></g><g stroke-linecap="round" transform="translate(290 609.11386553566) rotate(0 40 40)"><path d="M14.62 8.73 C14.62 8.73, 14.62 8.73, 14.62 8.73 M14.62 8.73 C14.62 8.73, 14.62 8.73, 14.62 8.73 M0.48 29.84 C5.9 21.62, 12.03 17.13, 20.72 7.12 M0.59 31.21 C7.47 23.06, 15.13 14.8, 21.33 6.93 M1.21 36.27 C11.58 22.62, 22.94 12.79, 31.6 2.04 M2.62 36.14 C9.16 28.79, 14.43 20.07, 29.62 3.09 M2.42 40.06 C16.81 28.32, 29.19 12.14, 39.13 1.26 M2.68 41.88 C9.3 32.49, 17.02 24.29, 36.73 1.58 M2.25 46.11 C15.03 33.29, 25.82 19.29, 42.84 4.61 M1.62 47.23 C10.39 37.36, 18.59 28.59, 41.94 2.24 M2.82 51.82 C17.73 38.72, 29.56 22.77, 47.13 3.35 M3.46 52.33 C15.22 39.41, 27.56 26.3, 45.6 4.56 M4.1 58.01 C21.15 38.62, 36.84 17.25, 49.28 3.13 M4.95 56.29 C20.97 37.82, 34.77 21.39, 49.88 4.46 M7.73 58.95 C27.02 37.3, 43.54 16.69, 53.19 6.44 M8.24 58.87 C21.46 44.04, 34.49 27.99, 54.31 5.38 M11.43 63.94 C18.63 51.09, 29.98 40.46, 58.54 8.54 M11.07 62.84 C20.04 50.03, 29.7 39.06, 57.72 7.98 M14.24 65.81 C23.15 55.24, 35.46 42.3, 65.22 5.87 M12.73 66.2 C31.43 42.72, 50.2 21.53, 62.47 7.26 M16.23 69.61 C31.29 51.92, 44.27 36.31, 67.26 11.8 M15.63 69.54 C34.18 46.35, 51.77 25.85, 67.12 9.99 M18.37 69.98 C36.48 51.25, 54 32.81, 67.81 13.47 M17.88 71.2 C30.28 59.12, 42.3 44.12, 69.21 14.33 M20.36 74.69 C40.9 53.5, 59.29 34.2, 72.4 16.31 M20.97 75.44 C31.94 62.68, 41.79 49.51, 71.33 16.04 M24.37 76.98 C43.87 56, 62.2 36.6, 72.71 21.21 M24.21 76.58 C40.61 58.22, 54.32 42.05, 72.64 20.33 M30.3 78.56 C42.52 61.58, 55 44.62, 77.08 22.93 M29.85 76.7 C44.71 58.86, 59.03 41.3, 76.15 24.06 M32.14 77.29 C48.38 60.3, 65.42 42.31, 78.31 27.32 M34.19 78.99 C42.55 66.33, 51.99 56.25, 78.33 27.63 M39.87 78.59 C47.69 70.1, 56.94 58.96, 77.48 32.77 M37.24 79.92 C52.87 62.94, 69.01 44.46, 77.72 32.14 M41.21 78.64 C55.22 64.22, 69.35 49.8, 77.7 36.55 M43.28 80.19 C56.19 66.46, 68.36 50.12, 78.42 38.54 M49.42 77.07 C60.85 68.67, 68.66 56.15, 80 44.88 M50.43 78.04 C59.41 66.47, 68.67 54.2, 78.77 43.27 M57.25 73.67 C64.35 66.92, 70.23 59.87, 80.47 48.53 M59.4 73.79 C64.29 66.52, 69.6 60.55, 78.32 50.71" stroke="#82c91e" stroke-width="0.5" fill="none"></path><path d="M38.51 -0.2 C45.91 -1.08, 56.51 2.16, 62.95 6.49 C69.38 10.81, 74.49 18.45, 77.12 25.76 C79.74 33.07, 80.61 42.88, 78.72 50.35 C76.83 57.81, 71.9 65.61, 65.79 70.55 C59.67 75.5, 49.81 79.47, 42.03 80.02 C34.25 80.58, 25.67 78.18, 19.1 73.88 C12.52 69.58, 5.62 61.45, 2.59 54.22 C-0.44 46.98, -1.04 38, 0.93 30.47 C2.89 22.93, 8.35 13.92, 14.39 9 C20.42 4.08, 32.34 2.48, 37.13 0.97 C41.92 -0.54, 41.25 -0.17, 43.12 -0.06 C44.99 0.04, 48.42 1.05, 48.36 1.6 M21.34 4.5 C27.75 0.97, 38.71 -0.55, 46.77 0.84 C54.84 2.23, 64.13 7.46, 69.75 12.85 C75.37 18.24, 79.74 25.77, 80.51 33.17 C81.29 40.57, 78.11 50.05, 74.41 57.25 C70.72 64.44, 65.31 72.85, 58.36 76.33 C51.4 79.82, 40.47 79.34, 32.68 78.17 C24.9 76.99, 17.19 74.66, 11.64 69.28 C6.09 63.9, 0.7 53.4, -0.59 45.88 C-1.88 38.36, 0.38 31.04, 3.92 24.15 C7.45 17.25, 17.64 7.92, 20.64 4.52 C23.63 1.12, 21.48 3.75, 21.88 3.76 C22.28 3.77, 22.79 3.97, 23.02 4.59" stroke="#000000" stroke-width="1" fill="none"></path></g><g transform="translate(319 626.11386553566) rotate(0 11 23)"><text x="11" y="32" font-family="Virgil, Segoe UI Emoji" font-size="36px" fill="#000000" text-anchor="middle" style="white-space: pre;" direction="ltr">S</text></g><g stroke-linecap="round"><g transform="translate(330 569.11386553566) rotate(0 -0.39733390009962477 19.549607578124853)"><path d="M-0.04 0.02 C-0.05 6.6, 0.77 32.36, 0.73 39.07 M-1.52 -1.02 C-1.69 5.72, 0.1 33, 0.17 40.12" stroke="#000000" stroke-width="1" fill="none"></path></g><g transform="translate(330 569.11386553566) rotate(0 -0.39733390009962477 19.549607578124853)"><path d="M-7.38 22.82 C-6.28 27.89, -1.58 33.79, -0.94 38.56 M-8.25 21.81 C-5 28.51, -2.22 33.51, -0.12 39.78" stroke="#000000" stroke-width="1" fill="none"></path></g><g transform="translate(330 569.11386553566) rotate(0 -0.39733390009962477 19.549607578124853)"><path d="M6.29 22.29 C2.44 27.54, 2.19 33.64, -0.94 38.56 M5.42 21.27 C4.2 28.28, 2.5 33.46, -0.12 39.78" stroke="#000000" stroke-width="1" fill="none"></path></g></g><g stroke-linecap="round"><g transform="translate(331.7633489581011 329.89252104470506) rotate(0 -0.5352809148095616 20.20620447746478)"><path d="M-0.99 0.76 C-0.94 7.54, -0.71 33.83, -0.53 40.3 M0.69 0.11 C0.61 6.54, -1.54 31.58, -1.76 38.34" stroke="#000000" stroke-width="1" fill="none"></path></g><g transform="translate(331.7633489581011 329.89252104470506) rotate(0 -0.5352809148095616 20.20620447746478)"><path d="M-6.18 18.27 C-5.68 23.78, -5.55 29.76, -2.45 37.99 M-7.56 18.73 C-6.54 24.83, -4.7 30.87, -2.28 38.53" stroke="#000000" stroke-width="1" fill="none"></path></g><g transform="translate(331.7633489581011 329.89252104470506) rotate(0 -0.5352809148095616 20.20620447746478)"><path d="M7.47 19.11 C4.82 24.3, 1.79 30.1, -2.45 37.99 M6.1 19.56 C3.05 25.35, 0.81 31.14, -2.28 38.53" stroke="#000000" stroke-width="1" fill="none"></path></g></g><g stroke-linecap="round" transform="translate(390 250) rotate(0 40 40)"><path d="M23.52 3.89 C29.83 0.16, 38.98 -0.5, 46.49 0.97 C54 2.44, 63.17 7.12, 68.59 12.71 C74.01 18.31, 77.8 26.8, 79.01 34.52 C80.22 42.23, 79.37 52.02, 75.85 58.99 C72.32 65.96, 64.98 72.83, 57.87 76.35 C50.76 79.87, 40.66 81.37, 33.17 80.11 C25.68 78.85, 18.26 74.35, 12.93 68.79 C7.61 63.23, 2.69 54.56, 1.23 46.75 C-0.24 38.94, 0.79 28.88, 4.16 21.96 C7.53 15.03, 17.92 8.43, 21.46 5.18 C25 1.93, 24.33 2.97, 25.4 2.45 C26.47 1.94, 27.68 1.35, 27.89 2.11 M37.97 -0.61 C44.96 -1.39, 53.73 2.48, 60.37 6.96 C67.02 11.45, 74.7 19.23, 77.85 26.33 C81 33.43, 81.11 42.24, 79.26 49.55 C77.4 56.86, 72.55 64.94, 66.73 70.19 C60.91 75.43, 52.44 80.57, 44.36 81.02 C36.28 81.47, 25.18 76.84, 18.26 72.88 C11.33 68.91, 5.65 64.17, 2.81 57.23 C-0.04 50.29, -0.43 38.86, 1.21 31.23 C2.84 23.6, 6.69 16.79, 12.63 11.47 C18.57 6.14, 32.85 1.2, 36.83 -0.69 C40.81 -2.58, 36.48 0, 36.5 0.12 C36.53 0.25, 36.62 -0.75, 37 0.07" stroke="#000000" stroke-width="1" fill="none"></path></g><g transform="translate(420 267) rotate(0 10 23)"><text x="10" y="32" font-family="Virgil, Segoe UI Emoji" font-size="36px" fill="#000000" text-anchor="middle" style="white-space: pre;" direction="ltr">H</text></g><g stroke-linecap="round" transform="translate(390 369.06624294371375) rotate(0 40 40)"><path d="M7.09 16.77 C7.09 16.77, 7.09 16.77, 7.09 16.77 M7.09 16.77 C7.09 16.77, 7.09 16.77, 7.09 16.77 M4.05 24.57 C11.29 19.05, 13.94 13.37, 18.68 9.2 M5.3 25.7 C8.97 21.04, 13.77 15.47, 21.44 8.15 M1.3 34.8 C11.54 23.27, 21.36 15.65, 29.5 5.87 M1.36 35.4 C9.53 25.72, 16.79 17.7, 28.85 4.09 M3.5 41.78 C9.2 34.43, 18.32 22.13, 34.88 3.37 M1.05 40.58 C12.24 30.54, 21.15 20.41, 34.55 2.55 M3.55 45.05 C17.02 30.55, 27.91 19.49, 39.48 2.76 M2.57 45.63 C17.08 30.6, 29.01 16.2, 39.82 2.21 M2.51 50.79 C13.76 39.33, 27.22 26.26, 47.78 1.19 M5.26 49.62 C14.99 37.93, 26.61 23.25, 45.8 3.32 M7.36 54.22 C24.39 35.27, 40.59 18.52, 53.17 3.35 M7.1 55.37 C16.22 41.86, 27.39 29.73, 51.3 0.81 M6.85 57.59 C19.01 44.53, 32.29 32.2, 56.56 4.62 M7.37 59.15 C22.57 42.32, 36.5 25.23, 55.17 4.25 M9.33 65.13 C23.54 48.35, 36.78 30.32, 59.92 8.74 M8.25 64.34 C27.7 41.58, 47.12 18.75, 58.7 7.16 M11.16 67.14 C28.55 48.89, 42.73 29.18, 59.71 9.07 M12.01 67.32 C21.16 54.52, 31.69 43.18, 60.73 9.01 M15.92 70.55 C32.95 46.24, 53.56 27.23, 63.84 11.94 M14.03 68.63 C32.71 48.98, 51.32 27.24, 63.51 12.34 M16.28 70.05 C29.42 58.03, 39.9 47.16, 68.25 13.16 M17.36 71.91 C35.08 50.81, 53.15 29.64, 66.94 13.89 M22.32 72.02 C36.17 56.34, 53.55 36.66, 72.05 16.18 M20.97 74.5 C34.89 58.65, 48.67 43.44, 70.58 16.59 M24.13 77.48 C40.93 56.92, 60.27 35.21, 73.26 20.76 M24.99 76.15 C40.79 58.81, 56.08 40.16, 73.12 18.85 M28.26 78.53 C38.49 67.28, 48.69 56.61, 74.7 22.69 M27.01 80.11 C39.24 63.76, 53.19 49.94, 75.09 24.07 M34.13 78.51 C45.8 65.44, 55.3 53.56, 75.74 26.45 M33.29 79.09 C42.21 68.98, 51.21 57.52, 76.36 27.99 M37.36 78.99 C51.57 65.58, 63.28 47.92, 76.82 33.91 M37.8 78.93 C50.5 65.99, 62.78 51.6, 77.45 33.08 M42.05 78.93 C51.78 70.74, 60.67 59.17, 79.93 37.27 M43.33 79.46 C53.83 65.37, 65.68 52.55, 79.8 36.27 M49.35 80.1 C60.98 63.47, 74.4 49.85, 79.05 40.99 M47.89 78.68 C59.29 64.62, 71.06 52.22, 81 42.54 M51.94 81.05 C61.43 69.67, 67.13 61.89, 78.08 49.75 M53.83 80.4 C59.5 71.21, 65.76 64.13, 78.45 51.6 M67.38 70.95 C69.07 66.18, 72.34 64.42, 74.75 60.29 M67.21 69.58 C68.31 67.46, 70.03 65.4, 75.65 59.77" stroke="#82c91e" stroke-width="0.5" fill="none"></path><path d="M52.62 2.58 C59.63 4.61, 68.16 11.22, 72.63 17.6 C77.1 23.98, 79.46 33.05, 79.44 40.84 C79.42 48.64, 77.08 58.06, 72.51 64.38 C67.93 70.7, 59.6 76.4, 52.01 78.78 C44.43 81.16, 34.21 81.13, 27 78.67 C19.79 76.21, 13.15 70.39, 8.76 64.02 C4.36 57.64, 0.85 48.36, 0.62 40.44 C0.38 32.52, 2.91 22.78, 7.35 16.48 C11.78 10.17, 19.91 5.14, 27.25 2.59 C34.59 0.04, 46.47 1.09, 51.39 1.15 C56.31 1.21, 55.42 2.08, 56.78 2.96 C58.14 3.84, 59.88 5.6, 59.56 6.42 M35.66 0.73 C43.09 -0.09, 54.48 2.95, 61.42 6.85 C68.35 10.76, 74.18 17.23, 77.27 24.15 C80.35 31.07, 81.51 40.58, 79.93 48.39 C78.35 56.2, 73.93 66.01, 67.8 71.02 C61.66 76.02, 51.13 77.55, 43.13 78.42 C35.13 79.29, 26.31 79.88, 19.77 76.24 C13.24 72.6, 7.19 63.67, 3.9 56.57 C0.61 49.47, -1.59 41.39, 0.04 33.62 C1.67 25.85, 8.14 15.49, 13.68 9.96 C19.22 4.42, 29.57 2.19, 33.28 0.42 C36.99 -1.35, 35.21 -0.91, 35.94 -0.66 C36.66 -0.42, 37.34 1.08, 37.61 1.9" stroke="#000000" stroke-width="1" fill="none"></path></g><g transform="translate(418 386.06624294371375) rotate(0 12 23)"><text x="12" y="32" font-family="Virgil, Segoe UI Emoji" font-size="36px" fill="#000000" text-anchor="middle" style="white-space: pre;" direction="ltr">E</text></g><g stroke-linecap="round"><g transform="translate(430.96080584784977 209.70636160025373) rotate(0 -0.06561859317383778 20.377278423514213)"><path d="M0.81 0.88 C0.98 7.39, 0.06 32.8, -0.01 39.29 M-0.23 0.29 C-0.12 6.93, -0.97 33.66, -0.96 40.46" stroke="#000000" stroke-width="1" fill="none"></path></g><g transform="translate(430.96080584784977 209.70636160025373) rotate(0 -0.06561859317383778 20.377278423514213)"><path d="M-6.02 21.54 C-7.25 26.18, -4.94 30.62, -2.08 41.24 M-6.75 20.71 C-4.66 28.64, -2.92 34.6, -1.18 40.68" stroke="#000000" stroke-width="1" fill="none"></path></g><g transform="translate(430.96080584784977 209.70636160025373) rotate(0 -0.06561859317383778 20.377278423514213)"><path d="M7.66 21.77 C3.54 26.45, 2.96 30.84, -2.08 41.24 M6.93 20.94 C4.53 28.75, 1.78 34.63, -1.18 40.68" stroke="#000000" stroke-width="1" fill="none"></path></g></g><g stroke-linecap="round"><g transform="translate(431.76334895810123 329.89252104470506) rotate(0 0.46477081574499834 19.674118508920074)"><path d="M0.88 -0.01 C0.73 6.59, -0.54 33.63, -0.71 40.41 M-0.12 -1.06 C0.1 5.1, 1.78 31.87, 1.64 38.5" stroke="#000000" stroke-width="1" fill="none"></path></g><g transform="translate(431.76334895810123 329.89252104470506) rotate(0 0.46477081574499834 19.674118508920074)"><path d="M-5.72 18.72 C-2.57 25.51, 0.21 30.54, 2.41 39.06 M-6.55 20.45 C-2.2 26.84, 0.25 33.32, 1.85 37.77" stroke="#000000" stroke-width="1" fill="none"></path></g><g transform="translate(431.76334895810123 329.89252104470506) rotate(0 0.46477081574499834 19.674118508920074)"><path d="M7.96 18.35 C6.77 25.36, 5.2 30.51, 2.41 39.06 M7.13 20.09 C6.44 26.71, 3.86 33.33, 1.85 37.77" stroke="#000000" stroke-width="1" fill="none"></path></g></g><g stroke-linecap="round" transform="translate(10 250) rotate(0 40 40)"><path d="M3.89 21.93 C3.89 21.93, 3.89 21.93, 3.89 21.93 M3.89 21.93 C3.89 21.93, 3.89 21.93, 3.89 21.93 M2.66 30.3 C13.06 18.78, 20.24 9.63, 22.85 2.86 M3.57 28.45 C8.63 21.06, 16.88 14.92, 23.7 4.82 M2.23 36.01 C12.74 26.82, 21.23 14.38, 30.07 2.09 M1.56 36.84 C11.34 25.55, 19.94 15.29, 30.76 3.42 M2.35 44.04 C9.08 32.34, 17.75 24.98, 37.22 3.46 M1.19 44.25 C14.3 28.93, 26.7 13.47, 35.91 3.12 M3.48 49.01 C13.5 36.63, 25.42 20.82, 41.2 4.08 M1.76 48.83 C10.35 37.99, 20.6 27.63, 41.79 2.28 M6.38 53.13 C20.03 35.75, 32.23 19.45, 46.9 1.86 M4.13 52.56 C14.87 39.58, 26.18 26.3, 48.27 0.75 M7.29 55.89 C20.83 40.33, 36.47 23.35, 50.29 1.4 M6.64 56.63 C22.8 36.47, 38.59 17.94, 51.36 2.47 M9.65 58.7 C26.18 37.85, 43.83 20.1, 55.5 4.92 M8.62 60.78 C23.85 41.5, 39.62 22.44, 55.07 4.11 M11.28 63.12 C22.81 51.23, 31.92 35.58, 58.74 6.47 M10.41 63.3 C23.5 48.18, 34.88 35.55, 59.09 6.02 M9.59 67.04 C29.17 44.55, 49.67 22.14, 64.72 8.13 M12.26 67.88 C26.6 50.15, 41.24 34.15, 64.02 8.14 M15.91 70.09 C31.26 51.57, 41.94 36.45, 65.85 9.93 M15.5 70.76 C34.92 48.55, 55.26 24.82, 66.33 10.62 M18.84 73.13 C32.99 58.13, 43.36 43.72, 70.64 14 M19.67 70.96 C35.35 53.08, 51.2 35.31, 69.54 13.74 M23.26 74.91 C40.91 53.11, 60.15 28.1, 74.92 15.11 M22.27 74.58 C34.47 58.43, 48.28 44.94, 73.24 15.08 M27.48 76.24 C36.71 65.13, 45.5 52.83, 74.95 20 M25.75 75.8 C41.81 59.21, 57.46 40.97, 74.99 20.67 M29.1 79.19 C45.61 62.07, 56.48 47.36, 76.54 23.12 M30.08 77.72 C41.95 62.94, 53.73 49.6, 77.15 23.39 M32.78 80.31 C43.28 66.34, 53.97 56.32, 78.25 28.81 M34.39 80.31 C46.94 62.54, 61.63 45.67, 78.96 26.85 M35.43 82.5 C46.66 68.07, 58.97 55.71, 81.85 29.98 M36.87 82.04 C46.47 72.15, 54.92 59.46, 80.72 30.88 M42.6 83 C54.62 67.95, 66.07 53.83, 80.81 36.33 M42.96 82.53 C50.82 69.85, 59.66 60.59, 81.06 37.34 M49.1 79.08 C59 67.81, 71.92 53.48, 80.06 43.49 M48.77 79.99 C56.45 70.95, 65.67 61.22, 80.51 44.08 M52.75 78.45 C60.92 70.28, 68.76 63.12, 77.85 52.22 M54.56 80.38 C62.94 70.75, 72.32 58.45, 78.15 51.84" stroke="#82c91e" stroke-width="0.5" fill="none"></path><path d="M23.45 3.72 C30.11 0.1, 40.99 -0.8, 48.76 0.73 C56.54 2.26, 64.85 7.04, 70.09 12.9 C75.32 18.76, 79.19 28.11, 80.15 35.89 C81.11 43.68, 79.56 52.82, 75.85 59.61 C72.15 66.39, 64.99 73.24, 57.91 76.6 C50.84 79.95, 41.14 81.2, 33.4 79.75 C25.65 78.3, 16.83 73.43, 11.43 67.9 C6.03 62.38, 2.22 54.3, 0.99 46.61 C-0.24 38.92, 0.66 28.73, 4.05 21.75 C7.45 14.76, 17.3 8.02, 21.35 4.7 C25.4 1.38, 26.61 2.13, 28.37 1.8 C30.13 1.47, 31.97 2.06, 31.89 2.73 M41.31 -0.48 C48.53 -0.9, 57.55 4, 63.71 8.62 C69.87 13.24, 75.6 19.98, 78.27 27.26 C80.94 34.55, 81.85 44.85, 79.71 52.32 C77.57 59.8, 71.72 67.65, 65.45 72.13 C59.18 76.61, 50.28 79.23, 42.1 79.21 C33.91 79.18, 23.16 76.32, 16.35 71.99 C9.54 67.67, 3.52 60.6, 1.22 53.27 C-1.07 45.95, 0.37 35.24, 2.59 28.05 C4.81 20.87, 8.45 14.9, 14.52 10.17 C20.59 5.44, 34.8 1.2, 39.03 -0.34 C43.27 -1.88, 39.89 0.82, 39.94 0.94 C39.98 1.06, 39.11 -0.28, 39.31 0.39" stroke="#000000" stroke-width="1" fill="none"></path></g><g transform="translate(41 267.65618067444325) rotate(0 9 23)"><text x="9" y="32" font-family="Virgil, Segoe UI Emoji" font-size="36px" fill="#000000" text-anchor="middle" style="white-space: pre;" direction="ltr">Y</text></g><g stroke-linecap="round"><g transform="translate(51.76334895810123 211.48245877543462) rotate(0 -0.0031913559884060305 19.55974465718495)"><path d="M-0.99 -0.29 C-0.74 6.31, 0.75 32.59, 0.98 39.39 M0.69 -1.48 C0.92 5.28, 0.68 33.95, 0.55 40.6" stroke="#000000" stroke-width="1" fill="none"></path></g><g transform="translate(51.76334895810123 211.48245877543462) rotate(0 -0.0031913559884060305 19.55974465718495)"><path d="M-6.53 23.37 C-5.42 27.32, -1.88 31.12, 1.53 40.22 M-5.9 22.59 C-3.3 28.77, -1.04 34.83, 0.74 41.18" stroke="#000000" stroke-width="1" fill="none"></path></g><g transform="translate(51.76334895810123 211.48245877543462) rotate(0 -0.0031913559884060305 19.55974465718495)"><path d="M7.14 23.53 C4.77 27.33, 4.83 31.09, 1.53 40.22 M7.78 22.76 C5.71 29, 3.3 35, 0.74 41.18" stroke="#000000" stroke-width="1" fill="none"></path></g></g></svg>