<?xml version="1.0" encoding="UTF-8" standalone="no"?><svg xmlns="http://www.w3.org/2000/svg" xmlns:xlink="http://www.w3.org/1999/xlink" contentScriptType="application/ecmascript" contentStyleType="text/css" height="107px" preserveAspectRatio="none" style="width:206px;height:107px;" version="1.1" viewBox="0 0 206 107" width="206px" zoomAndPan="magnify"><defs><filter height="300%" id="fos6rqkwcszfc" width="300%" x="-1" y="-1"><feGaussianBlur result="blurOut" stdDeviation="2.0"/><feColorMatrix in="blurOut" result="blurOut2" type="matrix" values="0 0 0 0 0 0 0 0 0 0 0 0 0 0 0 0 0 0 .4 0"/><feOffset dx="4.0" dy="4.0" in="blurOut2" result="blurOut3"/><feBlend in="SourceGraphic" in2="blurOut3" mode="normal"/></filter></defs><g><!--MD5=[2f4e497837a991172d40b04b7a7d0ca2]
class Singleton--><rect codeLine="5" fill="#FEFECE" filter="url(#fos6rqkwcszfc)" height="86.4141" id="Singleton" style="stroke:#A80036;stroke-width:1.5;" width="157" x="7" y="7"/><ellipse cx="53.25" cy="23" fill="#ADD1B2" rx="11" ry="11" style="stroke:#A80036;stroke-width:1.0;"/><path d="M55.5938,18.6719 C54.6563,18.2344 54.0625,18.0938 53.1875,18.0938 C50.5625,18.0938 48.5625,20.1719 48.5625,22.8906 L48.5625,24.0156 C48.5625,26.5938 50.6719,28.4844 53.5625,28.4844 C54.7813,28.4844 55.9375,28.1875 56.6875,27.6406 C57.2656,27.2344 57.5938,26.7813 57.5938,26.3906 C57.5938,25.9375 57.2031,25.5469 56.7344,25.5469 C56.5156,25.5469 56.3125,25.625 56.125,25.8125 C55.6719,26.2969 55.6719,26.2969 55.4844,26.3906 C55.0625,26.6563 54.375,26.7813 53.6094,26.7813 C51.5625,26.7813 50.2656,25.6875 50.2656,23.9844 L50.2656,22.8906 C50.2656,21.1094 51.5156,19.7969 53.25,19.7969 C53.8281,19.7969 54.4375,19.9531 54.9063,20.2031 C55.3906,20.4844 55.5625,20.7031 55.6563,21.1094 C55.7188,21.5156 55.75,21.6406 55.8906,21.7656 C56.0313,21.9063 56.2656,22.0156 56.4844,22.0156 C56.75,22.0156 57.0156,21.875 57.1875,21.6563 C57.2969,21.5 57.3281,21.3125 57.3281,20.8906 L57.3281,19.4688 C57.3281,19.0313 57.3125,18.9063 57.2188,18.75 C57.0625,18.4844 56.7813,18.3438 56.4844,18.3438 C56.1875,18.3438 55.9844,18.4375 55.7656,18.75 L55.5938,18.6719 Z " fill="#000000"/><text fill="#000000" font-family="sans-serif" font-size="12" lengthAdjust="spacingAndGlyphs" textLength="56" x="73.75" y="27.1543">Singleton</text><line style="stroke:#A80036;stroke-width:1.5;" x1="8" x2="163" y1="39" y2="39"/><text fill="#000000" font-family="sans-serif" font-size="11" lengthAdjust="spacingAndGlyphs" text-decoration="underline" textLength="113" x="13" y="53.2104">-instance: Singleton</text><line style="stroke:#A80036;stroke-width:1.5;" x1="8" x2="163" y1="59.8047" y2="59.8047"/><text fill="#000000" font-family="sans-serif" font-size="11" lengthAdjust="spacingAndGlyphs" textLength="66" x="13" y="74.0151">-Singleton()</text><text fill="#000000" font-family="sans-serif" font-size="11" lengthAdjust="spacingAndGlyphs" text-decoration="underline" textLength="145" x="13" y="86.8198">+getInstance(): Singleton</text><!--MD5=[48ecdb82e392f1cdefd78a0d3886e779]
reverse link Singleton to Singleton--><path codeLine="11" d="M169.044,34.4323 C186.463,36.0593 199,41.2486 199,50 C199,59.5742 183.995,64.8849 164.008,65.9321 " fill="none" id="Singleton-backto-Singleton" style="stroke:#A80036;stroke-width:1.0;"/><polygon fill="#A80036" points="164.008,34.0679,172.6966,38.7055,168.995,34.4279,173.2726,30.7263,164.008,34.0679" style="stroke:#A80036;stroke-width:1.0;"/><!--MD5=[a88704285fb75ad55da637743e741954]
@startuml
skinparam classAttributeIconSize 0

hide empty members

class Singleton {
    {static} - instance: Singleton
    - Singleton()
    {static} + getInstance(): Singleton
}

Singleton <- - Singleton
@enduml

PlantUML version 1.2020.27beta1(Unknown compile time)
(GPL source distribution)
Java Runtime: Java(TM) SE Runtime Environment
JVM: Java HotSpot(TM) 64-Bit Server VM
Default Encoding: UTF-8
Language: en
Country: US
--></g></svg>