<?xml version="1.0" encoding="UTF-8" standalone="no"?><svg xmlns="http://www.w3.org/2000/svg" xmlns:xlink="http://www.w3.org/1999/xlink" contentScriptType="application/ecmascript" contentStyleType="text/css" height="451px" preserveAspectRatio="none" style="width:544px;height:451px;" version="1.1" viewBox="0 0 544 451" width="544px" zoomAndPan="magnify"><defs><filter height="300%" id="fbuxbuhhwh0or" width="300%" x="-1" y="-1"><feGaussianBlur result="blurOut" stdDeviation="2.0"/><feColorMatrix in="blurOut" result="blurOut2" type="matrix" values="0 0 0 0 0 0 0 0 0 0 0 0 0 0 0 0 0 0 .4 0"/><feOffset dx="4.0" dy="4.0" in="blurOut2" result="blurOut3"/><feBlend in="SourceGraphic" in2="blurOut3" mode="normal"/></filter></defs><g><!--MD5=[95174e42ee347a14b6cb78d6855f19b5]
class Element--><rect codeLine="5" fill="#FEFECE" filter="url(#fbuxbuhhwh0or)" height="52.8047" id="Element" style="stroke:#A80036;stroke-width:1.5;" width="143" x="196.5" y="7"/><ellipse cx="238.95" cy="23" fill="#B4A7E5" rx="11" ry="11" style="stroke:#A80036;stroke-width:1.0;"/><path d="M239.9031,19.7813 L241.6219,19.7813 C242.0125,19.7813 242.2,19.75 242.325,19.6719 C242.5906,19.5156 242.7313,19.2344 242.7313,18.9375 C242.7313,18.6719 242.6219,18.4063 242.3875,18.2344 C242.2156,18.125 242.075,18.0938 241.6219,18.0938 L236.4813,18.0938 C236.0438,18.0938 235.9188,18.1094 235.7625,18.2031 C235.5125,18.3594 235.3563,18.6563 235.3563,18.9375 C235.3563,19.2188 235.4969,19.4688 235.7156,19.6406 C235.8719,19.75 236.0594,19.7813 236.4813,19.7813 L238.2,19.7813 L238.2,26.2969 L236.4813,26.2969 C236.0438,26.2969 235.9188,26.3125 235.7625,26.4219 C235.5125,26.5781 235.3563,26.8594 235.3563,27.1563 C235.3563,27.4063 235.4969,27.6719 235.7156,27.8281 C235.8719,27.9531 236.075,28 236.4813,28 L241.6219,28 C242.3719,28 242.7313,27.7188 242.7313,27.1563 C242.7313,26.875 242.6219,26.625 242.3875,26.4531 C242.2156,26.3281 242.075,26.2969 241.6219,26.2969 L239.9031,26.2969 L239.9031,19.7813 Z " fill="#000000"/><text fill="#000000" font-family="sans-serif" font-size="12" font-style="italic" lengthAdjust="spacingAndGlyphs" textLength="50" x="259.05" y="27.1543">Element</text><line style="stroke:#A80036;stroke-width:1.5;" x1="197.5" x2="338.5" y1="39" y2="39"/><text fill="#000000" font-family="sans-serif" font-size="11" lengthAdjust="spacingAndGlyphs" textLength="131" x="202.5" y="53.2104">+accept(visitor: Visitor)</text><!--MD5=[0b74777befbfc8e91195c08b6a197892]
class SomeElement--><rect codeLine="11" fill="#FEFECE" filter="url(#fbuxbuhhwh0or)" height="65.6094" id="SomeElement" style="stroke:#A80036;stroke-width:1.5;" width="143" x="18.5" y="120"/><ellipse cx="46.1" cy="136" fill="#ADD1B2" rx="11" ry="11" style="stroke:#A80036;stroke-width:1.0;"/><path d="M48.4438,131.6719 C47.5063,131.2344 46.9125,131.0938 46.0375,131.0938 C43.4125,131.0938 41.4125,133.1719 41.4125,135.8906 L41.4125,137.0156 C41.4125,139.5938 43.5219,141.4844 46.4125,141.4844 C47.6313,141.4844 48.7875,141.1875 49.5375,140.6406 C50.1156,140.2344 50.4438,139.7813 50.4438,139.3906 C50.4438,138.9375 50.0531,138.5469 49.5844,138.5469 C49.3656,138.5469 49.1625,138.625 48.975,138.8125 C48.5219,139.2969 48.5219,139.2969 48.3344,139.3906 C47.9125,139.6563 47.225,139.7813 46.4594,139.7813 C44.4125,139.7813 43.1156,138.6875 43.1156,136.9844 L43.1156,135.8906 C43.1156,134.1094 44.3656,132.7969 46.1,132.7969 C46.6781,132.7969 47.2875,132.9531 47.7563,133.2031 C48.2406,133.4844 48.4125,133.7031 48.5063,134.1094 C48.5688,134.5156 48.6,134.6406 48.7406,134.7656 C48.8813,134.9063 49.1156,135.0156 49.3344,135.0156 C49.6,135.0156 49.8656,134.875 50.0375,134.6563 C50.1469,134.5 50.1781,134.3125 50.1781,133.8906 L50.1781,132.4688 C50.1781,132.0313 50.1625,131.9063 50.0688,131.75 C49.9125,131.4844 49.6313,131.3438 49.3344,131.3438 C49.0375,131.3438 48.8344,131.4375 48.6156,131.75 L48.4438,131.6719 Z " fill="#000000"/><text fill="#000000" font-family="sans-serif" font-size="12" lengthAdjust="spacingAndGlyphs" textLength="83" x="62.9" y="140.1543">SomeElement</text><line style="stroke:#A80036;stroke-width:1.5;" x1="19.5" x2="160.5" y1="152" y2="152"/><text fill="#000000" font-family="sans-serif" font-size="11" lengthAdjust="spacingAndGlyphs" textLength="93" x="24.5" y="166.2104">+someFeature()</text><text fill="#000000" font-family="sans-serif" font-size="11" lengthAdjust="spacingAndGlyphs" textLength="131" x="24.5" y="179.0151">+accept(visitor: Visitor)</text><!--MD5=[ba08b802038dcb08a0d785bcd1e8ea2d]
class AnotherElement--><rect codeLine="17" fill="#FEFECE" filter="url(#fbuxbuhhwh0or)" height="65.6094" id="AnotherElement" style="stroke:#A80036;stroke-width:1.5;" width="143" x="196.5" y="120"/><ellipse cx="218.7" cy="136" fill="#ADD1B2" rx="11" ry="11" style="stroke:#A80036;stroke-width:1.0;"/><path d="M221.0438,131.6719 C220.1063,131.2344 219.5125,131.0938 218.6375,131.0938 C216.0125,131.0938 214.0125,133.1719 214.0125,135.8906 L214.0125,137.0156 C214.0125,139.5938 216.1219,141.4844 219.0125,141.4844 C220.2313,141.4844 221.3875,141.1875 222.1375,140.6406 C222.7156,140.2344 223.0438,139.7813 223.0438,139.3906 C223.0438,138.9375 222.6531,138.5469 222.1844,138.5469 C221.9656,138.5469 221.7625,138.625 221.575,138.8125 C221.1219,139.2969 221.1219,139.2969 220.9344,139.3906 C220.5125,139.6563 219.825,139.7813 219.0594,139.7813 C217.0125,139.7813 215.7156,138.6875 215.7156,136.9844 L215.7156,135.8906 C215.7156,134.1094 216.9656,132.7969 218.7,132.7969 C219.2781,132.7969 219.8875,132.9531 220.3563,133.2031 C220.8406,133.4844 221.0125,133.7031 221.1063,134.1094 C221.1688,134.5156 221.2,134.6406 221.3406,134.7656 C221.4813,134.9063 221.7156,135.0156 221.9344,135.0156 C222.2,135.0156 222.4656,134.875 222.6375,134.6563 C222.7469,134.5 222.7781,134.3125 222.7781,133.8906 L222.7781,132.4688 C222.7781,132.0313 222.7625,131.9063 222.6688,131.75 C222.5125,131.4844 222.2313,131.3438 221.9344,131.3438 C221.6375,131.3438 221.4344,131.4375 221.2156,131.75 L221.0438,131.6719 Z " fill="#000000"/><text fill="#000000" font-family="sans-serif" font-size="12" lengthAdjust="spacingAndGlyphs" textLength="95" x="234.3" y="140.1543">AnotherElement</text><line style="stroke:#A80036;stroke-width:1.5;" x1="197.5" x2="338.5" y1="152" y2="152"/><text fill="#000000" font-family="sans-serif" font-size="11" lengthAdjust="spacingAndGlyphs" textLength="105" x="202.5" y="166.2104">+anotherFeature()</text><text fill="#000000" font-family="sans-serif" font-size="11" lengthAdjust="spacingAndGlyphs" textLength="131" x="202.5" y="179.0151">+accept(visitor: Visitor)</text><!--MD5=[53bf68ed638bcf4718423098b3d480ea]
class Visitor--><rect codeLine="23" fill="#FEFECE" filter="url(#fbuxbuhhwh0or)" height="65.6094" id="Visitor" style="stroke:#A80036;stroke-width:1.5;" width="244" x="146" y="246"/><ellipse cx="245.25" cy="262" fill="#B4A7E5" rx="11" ry="11" style="stroke:#A80036;stroke-width:1.0;"/><path d="M246.2031,258.7813 L247.9219,258.7813 C248.3125,258.7813 248.5,258.75 248.625,258.6719 C248.8906,258.5156 249.0313,258.2344 249.0313,257.9375 C249.0313,257.6719 248.9219,257.4063 248.6875,257.2344 C248.5156,257.125 248.375,257.0938 247.9219,257.0938 L242.7813,257.0938 C242.3438,257.0938 242.2188,257.1094 242.0625,257.2031 C241.8125,257.3594 241.6563,257.6563 241.6563,257.9375 C241.6563,258.2188 241.7969,258.4688 242.0156,258.6406 C242.1719,258.75 242.3594,258.7813 242.7813,258.7813 L244.5,258.7813 L244.5,265.2969 L242.7813,265.2969 C242.3438,265.2969 242.2188,265.3125 242.0625,265.4219 C241.8125,265.5781 241.6563,265.8594 241.6563,266.1563 C241.6563,266.4063 241.7969,266.6719 242.0156,266.8281 C242.1719,266.9531 242.375,267 242.7813,267 L247.9219,267 C248.6719,267 249.0313,266.7188 249.0313,266.1563 C249.0313,265.875 248.9219,265.625 248.6875,265.4531 C248.5156,265.3281 248.375,265.2969 247.9219,265.2969 L246.2031,265.2969 L246.2031,258.7813 Z " fill="#000000"/><text fill="#000000" font-family="sans-serif" font-size="12" font-style="italic" lengthAdjust="spacingAndGlyphs" textLength="37" x="265.75" y="266.1543">Visitor</text><line style="stroke:#A80036;stroke-width:1.5;" x1="147" x2="389" y1="278" y2="278"/><text fill="#000000" font-family="sans-serif" font-size="11" lengthAdjust="spacingAndGlyphs" textLength="209" x="152" y="292.2104">+visit(someElement: SomeElement)</text><text fill="#000000" font-family="sans-serif" font-size="11" lengthAdjust="spacingAndGlyphs" textLength="232" x="152" y="305.0151">+visit(anotherElement: AnotherElement)</text><!--MD5=[71a7f3ff6091c4d5750b6e63135966f5]
class SomeVisitor--><rect codeLine="31" fill="#FEFECE" filter="url(#fbuxbuhhwh0or)" height="65.6094" id="SomeVisitor" style="stroke:#A80036;stroke-width:1.5;" width="244" x="7" y="372"/><ellipse cx="88.25" cy="388" fill="#ADD1B2" rx="11" ry="11" style="stroke:#A80036;stroke-width:1.0;"/><path d="M90.5938,383.6719 C89.6563,383.2344 89.0625,383.0938 88.1875,383.0938 C85.5625,383.0938 83.5625,385.1719 83.5625,387.8906 L83.5625,389.0156 C83.5625,391.5938 85.6719,393.4844 88.5625,393.4844 C89.7813,393.4844 90.9375,393.1875 91.6875,392.6406 C92.2656,392.2344 92.5938,391.7813 92.5938,391.3906 C92.5938,390.9375 92.2031,390.5469 91.7344,390.5469 C91.5156,390.5469 91.3125,390.625 91.125,390.8125 C90.6719,391.2969 90.6719,391.2969 90.4844,391.3906 C90.0625,391.6563 89.375,391.7813 88.6094,391.7813 C86.5625,391.7813 85.2656,390.6875 85.2656,388.9844 L85.2656,387.8906 C85.2656,386.1094 86.5156,384.7969 88.25,384.7969 C88.8281,384.7969 89.4375,384.9531 89.9063,385.2031 C90.3906,385.4844 90.5625,385.7031 90.6563,386.1094 C90.7188,386.5156 90.75,386.6406 90.8906,386.7656 C91.0313,386.9063 91.2656,387.0156 91.4844,387.0156 C91.75,387.0156 92.0156,386.875 92.1875,386.6563 C92.2969,386.5 92.3281,386.3125 92.3281,385.8906 L92.3281,384.4688 C92.3281,384.0313 92.3125,383.9063 92.2188,383.75 C92.0625,383.4844 91.7813,383.3438 91.4844,383.3438 C91.1875,383.3438 90.9844,383.4375 90.7656,383.75 L90.5938,383.6719 Z " fill="#000000"/><text fill="#000000" font-family="sans-serif" font-size="12" lengthAdjust="spacingAndGlyphs" textLength="73" x="108.75" y="392.1543">SomeVisitor</text><line style="stroke:#A80036;stroke-width:1.5;" x1="8" x2="250" y1="404" y2="404"/><text fill="#000000" font-family="sans-serif" font-size="11" lengthAdjust="spacingAndGlyphs" textLength="209" x="13" y="418.2104">+visit(someElement: SomeElement)</text><text fill="#000000" font-family="sans-serif" font-size="11" lengthAdjust="spacingAndGlyphs" textLength="232" x="13" y="431.0151">+visit(anotherElement: AnotherElement)</text><!--MD5=[788e3577f1d5b478d8d217ed90c0b3e9]
class AnotherVisitor--><rect codeLine="36" fill="#FEFECE" filter="url(#fbuxbuhhwh0or)" height="65.6094" id="AnotherVisitor" style="stroke:#A80036;stroke-width:1.5;" width="244" x="286" y="372"/><ellipse cx="361.25" cy="388" fill="#ADD1B2" rx="11" ry="11" style="stroke:#A80036;stroke-width:1.0;"/><path d="M363.5938,383.6719 C362.6563,383.2344 362.0625,383.0938 361.1875,383.0938 C358.5625,383.0938 356.5625,385.1719 356.5625,387.8906 L356.5625,389.0156 C356.5625,391.5938 358.6719,393.4844 361.5625,393.4844 C362.7813,393.4844 363.9375,393.1875 364.6875,392.6406 C365.2656,392.2344 365.5938,391.7813 365.5938,391.3906 C365.5938,390.9375 365.2031,390.5469 364.7344,390.5469 C364.5156,390.5469 364.3125,390.625 364.125,390.8125 C363.6719,391.2969 363.6719,391.2969 363.4844,391.3906 C363.0625,391.6563 362.375,391.7813 361.6094,391.7813 C359.5625,391.7813 358.2656,390.6875 358.2656,388.9844 L358.2656,387.8906 C358.2656,386.1094 359.5156,384.7969 361.25,384.7969 C361.8281,384.7969 362.4375,384.9531 362.9063,385.2031 C363.3906,385.4844 363.5625,385.7031 363.6563,386.1094 C363.7188,386.5156 363.75,386.6406 363.8906,386.7656 C364.0313,386.9063 364.2656,387.0156 364.4844,387.0156 C364.75,387.0156 365.0156,386.875 365.1875,386.6563 C365.2969,386.5 365.3281,386.3125 365.3281,385.8906 L365.3281,384.4688 C365.3281,384.0313 365.3125,383.9063 365.2188,383.75 C365.0625,383.4844 364.7813,383.3438 364.4844,383.3438 C364.1875,383.3438 363.9844,383.4375 363.7656,383.75 L363.5938,383.6719 Z " fill="#000000"/><text fill="#000000" font-family="sans-serif" font-size="12" lengthAdjust="spacingAndGlyphs" textLength="85" x="381.75" y="392.1543">AnotherVisitor</text><line style="stroke:#A80036;stroke-width:1.5;" x1="287" x2="529" y1="404" y2="404"/><text fill="#000000" font-family="sans-serif" font-size="11" lengthAdjust="spacingAndGlyphs" textLength="209" x="292" y="418.2104">+visit(someElement: SomeElement)</text><text fill="#000000" font-family="sans-serif" font-size="11" lengthAdjust="spacingAndGlyphs" textLength="232" x="292" y="431.0151">+visit(anotherElement: AnotherElement)</text><!--MD5=[a7f674cf6e96460002ca8974bec2b592]
reverse link Element to SomeElement--><path codeLine="8" d="M212.111,71.393 C188.497,86.981 161.256,104.963 138.503,119.982 " fill="none" id="Element-backto-SomeElement" style="stroke:#A80036;stroke-width:1.0;stroke-dasharray:7.0,7.0;"/><polygon fill="none" points="208.389,65.462,228.937,60.286,216.102,77.146,208.389,65.462" style="stroke:#A80036;stroke-width:1.0;"/><!--MD5=[84bb03ca230fb6009811ea2267c6710f]
reverse link Element to AnotherElement--><path codeLine="9" d="M268,80.512 C268,93.715 268,107.82 268,119.982 " fill="none" id="Element-backto-AnotherElement" style="stroke:#A80036;stroke-width:1.0;stroke-dasharray:7.0,7.0;"/><polygon fill="none" points="261,80.286,268,60.286,275,80.286,261,80.286" style="stroke:#A80036;stroke-width:1.0;"/><!--MD5=[a52b02f40816a7ab6f077d8d361fd49d]
reverse link SomeElement to Visitor--><path codeLine="15" d="M140.686,189.309 C166.254,207.121 197.037,228.565 221.929,245.906 " fill="none" id="SomeElement-backto-Visitor" style="stroke:#A80036;stroke-width:1.0;stroke-dasharray:7.0,7.0;"/><polygon fill="#A80036" points="136.303,186.256,141.4008,194.6829,140.4055,189.1143,145.9741,188.119,136.303,186.256" style="stroke:#A80036;stroke-width:1.0;"/><!--MD5=[9c969ad6542d53856ffd8e169fc81e2e]
reverse link AnotherElement to Visitor--><path codeLine="21" d="M268,191.535 C268,208.886 268,229.282 268,245.906 " fill="none" id="AnotherElement-backto-Visitor" style="stroke:#A80036;stroke-width:1.0;stroke-dasharray:7.0,7.0;"/><polygon fill="#A80036" points="268,186.256,264,195.256,268,191.256,272,195.256,268,186.256" style="stroke:#A80036;stroke-width:1.0;"/><!--MD5=[ab4db1fa90431d41b50ffe58e3a996c7]
reverse link Visitor to SomeVisitor--><path codeLine="27" d="M216.915,325.573 C199.672,340.9543 180.8,357.7898 164.977,371.9057 " fill="none" id="Visitor-backto-SomeVisitor" style="stroke:#A80036;stroke-width:1.0;stroke-dasharray:7.0,7.0;"/><polygon fill="none" points="212.258,320.346,231.842,312.256,221.578,330.793,212.258,320.346" style="stroke:#A80036;stroke-width:1.0;"/><!--MD5=[aee374590290f30e8964b3ef2db354f0]
reverse link Visitor to AnotherVisitor--><path codeLine="28" d="M319.453,325.573 C336.819,340.9543 355.827,357.7898 371.764,371.9057 " fill="none" id="Visitor-backto-AnotherVisitor" style="stroke:#A80036;stroke-width:1.0;stroke-dasharray:7.0,7.0;"/><polygon fill="none" points="314.748,330.757,304.418,312.256,324.031,320.276,314.748,330.757" style="stroke:#A80036;stroke-width:1.0;"/><!--MD5=[00fc9067e93128697603f15f01ad44e0]
reverse link Visitor to Element--><path codeLine="29" d="M315.206,242.336 C331.687,227.015 348.245,207.642 357,186 C368,158.807 368.497,146.987 357,120 C346.671,95.754 325.722,75.069 306.742,60.121 " fill="none" id="Visitor-backto-Element" style="stroke:#A80036;stroke-width:1.0;stroke-dasharray:7.0,7.0;"/><polygon fill="#A80036" points="311.471,245.742,320.8158,242.6317,315.1649,242.3723,315.4243,236.7214,311.471,245.742" style="stroke:#A80036;stroke-width:1.0;"/><!--MD5=[2ad139e19f488519083aa93dfac8b733]
@startuml
skinparam classAttributeIconSize 0

hide empty members

interface Element {
    + accept(visitor: Visitor)
}
Element <|.. SomeElement
Element <|.. AnotherElement

class SomeElement {
    + someFeature()
    + accept(visitor: Visitor)
}
SomeElement <.. Visitor

class AnotherElement {
    + anotherFeature()
    + accept(visitor: Visitor)
}
AnotherElement <.. Visitor

interface Visitor {
    + visit(someElement: SomeElement)
    + visit(anotherElement: AnotherElement)
}
Visitor <|.. SomeVisitor
Visitor <|.. AnotherVisitor
Visitor <.. Element

class SomeVisitor {
    + visit(someElement: SomeElement)
    + visit(anotherElement: AnotherElement)
}

class AnotherVisitor {
    + visit(someElement: SomeElement)
    + visit(anotherElement: AnotherElement)
}
@enduml

PlantUML version 1.2020.27beta1(Unknown compile time)
(GPL source distribution)
Java Runtime: Java(TM) SE Runtime Environment
JVM: Java HotSpot(TM) 64-Bit Server VM
Default Encoding: UTF-8
Language: en
Country: US
--></g></svg>