<?xml version="1.0" encoding="UTF-8" standalone="no"?><svg xmlns="http://www.w3.org/2000/svg" xmlns:xlink="http://www.w3.org/1999/xlink" contentScriptType="application/ecmascript" contentStyleType="text/css" height="291px" preserveAspectRatio="none" style="width:579px;height:291px;" version="1.1" viewBox="0 0 579 291" width="579px" zoomAndPan="magnify"><defs><filter height="300%" id="ff219tmjc75av" width="300%" x="-1" y="-1"><feGaussianBlur result="blurOut" stdDeviation="2.0"/><feColorMatrix in="blurOut" result="blurOut2" type="matrix" values="0 0 0 0 0 0 0 0 0 0 0 0 0 0 0 0 0 0 .4 0"/><feOffset dx="4.0" dy="4.0" in="blurOut2" result="blurOut3"/><feBlend in="SourceGraphic" in2="blurOut3" mode="normal"/></filter></defs><g><!--MD5=[2c589014e840926a718801db2289e0a7]
class Creator--><rect codeLine="5" fill="#FEFECE" filter="url(#ff219tmjc75av)" height="65.6094" id="Creator" style="stroke:#A80036;stroke-width:1.5;" width="159" x="100" y="99"/><ellipse cx="153.25" cy="115" fill="#A9DCDF" rx="11" ry="11" style="stroke:#A80036;stroke-width:1.0;"/><path d="M155.3281,116.8125 L155.7188,117.7969 L155.3281,117.7969 C154.875,117.7969 154.7656,117.8125 154.6094,117.9219 C154.3594,118.0781 154.2031,118.3594 154.2031,118.6563 C154.2031,118.9219 154.3438,119.1719 154.5625,119.3281 C154.7031,119.4531 154.9063,119.5 155.3281,119.5 L157.6875,119.5 C158.0469,119.5 158.2656,119.4688 158.4063,119.375 C158.6563,119.2344 158.8125,118.9375 158.8125,118.6563 C158.8125,118.375 158.6719,118.125 158.4531,117.9688 C158.2813,117.8281 158.125,117.7969 157.6563,117.7969 L154.2656,109.5938 L150.5938,109.5938 C150.1406,109.5938 150.0156,109.6094 149.8594,109.7031 C149.6094,109.875 149.4531,110.1563 149.4531,110.4375 C149.4531,110.7188 149.5938,110.9688 149.8125,111.1406 C149.9844,111.25 150.1563,111.2813 150.5938,111.2813 L151.6719,111.2813 L149.0313,117.7969 C148.6094,117.7969 148.4531,117.8125 148.2969,117.9219 C148.0469,118.0781 147.8906,118.3594 147.8906,118.6563 C147.8906,119.2188 148.2656,119.5 149.0156,119.5 L151.2813,119.5 C151.6406,119.5 151.8594,119.4688 151.9844,119.375 C152.25,119.2344 152.3906,118.9375 152.3906,118.6563 C152.3906,118.375 152.2656,118.125 152.0469,117.9531 C151.875,117.8281 151.7344,117.7969 151.2813,117.7969 L150.8906,117.7969 L151.2813,116.8125 L155.3281,116.8125 Z M154.625,115.1094 L151.9531,115.1094 L153.2969,111.8438 L154.625,115.1094 Z " fill="#000000"/><text fill="#000000" font-family="sans-serif" font-size="12" font-style="italic" lengthAdjust="spacingAndGlyphs" textLength="44" x="173.75" y="119.1543">Creator</text><line style="stroke:#A80036;stroke-width:1.5;" x1="101" x2="258" y1="131" y2="131"/><text fill="#000000" font-family="sans-serif" font-size="11" lengthAdjust="spacingAndGlyphs" textLength="71" x="106" y="145.2104">+operation()</text><text fill="#000000" font-family="sans-serif" font-size="11" font-style="italic" lengthAdjust="spacingAndGlyphs" textLength="147" x="106" y="158.0151">+createProduct(): Product</text><!--MD5=[72136138052d025cffdce3c22fbd185f]
class Product--><rect codeLine="21" fill="#FEFECE" filter="url(#ff219tmjc75av)" height="32" id="Product" style="stroke:#A80036;stroke-width:1.5;" width="79" x="311" y="7"/><ellipse cx="326" cy="23" fill="#B4A7E5" rx="11" ry="11" style="stroke:#A80036;stroke-width:1.0;"/><path d="M326.9531,19.7813 L328.6719,19.7813 C329.0625,19.7813 329.25,19.75 329.375,19.6719 C329.6406,19.5156 329.7813,19.2344 329.7813,18.9375 C329.7813,18.6719 329.6719,18.4063 329.4375,18.2344 C329.2656,18.125 329.125,18.0938 328.6719,18.0938 L323.5313,18.0938 C323.0938,18.0938 322.9688,18.1094 322.8125,18.2031 C322.5625,18.3594 322.4063,18.6563 322.4063,18.9375 C322.4063,19.2188 322.5469,19.4688 322.7656,19.6406 C322.9219,19.75 323.1094,19.7813 323.5313,19.7813 L325.25,19.7813 L325.25,26.2969 L323.5313,26.2969 C323.0938,26.2969 322.9688,26.3125 322.8125,26.4219 C322.5625,26.5781 322.4063,26.8594 322.4063,27.1563 C322.4063,27.4063 322.5469,27.6719 322.7656,27.8281 C322.9219,27.9531 323.125,28 323.5313,28 L328.6719,28 C329.4219,28 329.7813,27.7188 329.7813,27.1563 C329.7813,26.875 329.6719,26.625 329.4375,26.4531 C329.2656,26.3281 329.125,26.2969 328.6719,26.2969 L326.9531,26.2969 L326.9531,19.7813 Z " fill="#000000"/><text fill="#000000" font-family="sans-serif" font-size="12" font-style="italic" lengthAdjust="spacingAndGlyphs" textLength="47" x="340" y="27.1543">Product</text><!--MD5=[f065b0962afe3b1103de370479af86ef]
class SomeCreator--><rect codeLine="11" fill="#FEFECE" filter="url(#ff219tmjc75av)" height="52.8047" id="SomeCreator" style="stroke:#A80036;stroke-width:1.5;" width="155" x="7" y="225"/><ellipse cx="41.35" cy="241" fill="#ADD1B2" rx="11" ry="11" style="stroke:#A80036;stroke-width:1.0;"/><path d="M43.6938,236.6719 C42.7563,236.2344 42.1625,236.0938 41.2875,236.0938 C38.6625,236.0938 36.6625,238.1719 36.6625,240.8906 L36.6625,242.0156 C36.6625,244.5938 38.7719,246.4844 41.6625,246.4844 C42.8813,246.4844 44.0375,246.1875 44.7875,245.6406 C45.3656,245.2344 45.6938,244.7813 45.6938,244.3906 C45.6938,243.9375 45.3031,243.5469 44.8344,243.5469 C44.6156,243.5469 44.4125,243.625 44.225,243.8125 C43.7719,244.2969 43.7719,244.2969 43.5844,244.3906 C43.1625,244.6563 42.475,244.7813 41.7094,244.7813 C39.6625,244.7813 38.3656,243.6875 38.3656,241.9844 L38.3656,240.8906 C38.3656,239.1094 39.6156,237.7969 41.35,237.7969 C41.9281,237.7969 42.5375,237.9531 43.0063,238.2031 C43.4906,238.4844 43.6625,238.7031 43.7563,239.1094 C43.8188,239.5156 43.85,239.6406 43.9906,239.7656 C44.1313,239.9063 44.3656,240.0156 44.5844,240.0156 C44.85,240.0156 45.1156,239.875 45.2875,239.6563 C45.3969,239.5 45.4281,239.3125 45.4281,238.8906 L45.4281,237.4688 C45.4281,237.0313 45.4125,236.9063 45.3188,236.75 C45.1625,236.4844 44.8813,236.3438 44.5844,236.3438 C44.2875,236.3438 44.0844,236.4375 43.8656,236.75 L43.6938,236.6719 Z " fill="#000000"/><text fill="#000000" font-family="sans-serif" font-size="12" lengthAdjust="spacingAndGlyphs" textLength="80" x="59.65" y="245.1543">SomeCreator</text><line style="stroke:#A80036;stroke-width:1.5;" x1="8" x2="161" y1="257" y2="257"/><text fill="#000000" font-family="sans-serif" font-size="11" lengthAdjust="spacingAndGlyphs" textLength="143" x="13" y="271.2104">+createProduct(): Product</text><!--MD5=[0f430126ea9f8cb0950e9461452ed2b0]
class AnotherCreator--><rect codeLine="16" fill="#FEFECE" filter="url(#ff219tmjc75av)" height="52.8047" id="AnotherCreator" style="stroke:#A80036;stroke-width:1.5;" width="155" x="197" y="225"/><ellipse cx="225.95" cy="241" fill="#ADD1B2" rx="11" ry="11" style="stroke:#A80036;stroke-width:1.0;"/><path d="M228.2938,236.6719 C227.3563,236.2344 226.7625,236.0938 225.8875,236.0938 C223.2625,236.0938 221.2625,238.1719 221.2625,240.8906 L221.2625,242.0156 C221.2625,244.5938 223.3719,246.4844 226.2625,246.4844 C227.4813,246.4844 228.6375,246.1875 229.3875,245.6406 C229.9656,245.2344 230.2938,244.7813 230.2938,244.3906 C230.2938,243.9375 229.9031,243.5469 229.4344,243.5469 C229.2156,243.5469 229.0125,243.625 228.825,243.8125 C228.3719,244.2969 228.3719,244.2969 228.1844,244.3906 C227.7625,244.6563 227.075,244.7813 226.3094,244.7813 C224.2625,244.7813 222.9656,243.6875 222.9656,241.9844 L222.9656,240.8906 C222.9656,239.1094 224.2156,237.7969 225.95,237.7969 C226.5281,237.7969 227.1375,237.9531 227.6063,238.2031 C228.0906,238.4844 228.2625,238.7031 228.3563,239.1094 C228.4188,239.5156 228.45,239.6406 228.5906,239.7656 C228.7313,239.9063 228.9656,240.0156 229.1844,240.0156 C229.45,240.0156 229.7156,239.875 229.8875,239.6563 C229.9969,239.5 230.0281,239.3125 230.0281,238.8906 L230.0281,237.4688 C230.0281,237.0313 230.0125,236.9063 229.9188,236.75 C229.7625,236.4844 229.4813,236.3438 229.1844,236.3438 C228.8875,236.3438 228.6844,236.4375 228.4656,236.75 L228.2938,236.6719 Z " fill="#000000"/><text fill="#000000" font-family="sans-serif" font-size="12" lengthAdjust="spacingAndGlyphs" textLength="92" x="243.05" y="245.1543">AnotherCreator</text><line style="stroke:#A80036;stroke-width:1.5;" x1="198" x2="351" y1="257" y2="257"/><text fill="#000000" font-family="sans-serif" font-size="11" lengthAdjust="spacingAndGlyphs" textLength="143" x="203" y="271.2104">+createProduct(): Product</text><!--MD5=[60c2a92890d7ed996273b78e86c8abad]
class SomeProduct--><rect codeLine="23" fill="#FEFECE" filter="url(#ff219tmjc75av)" height="32" id="SomeProduct" style="stroke:#A80036;stroke-width:1.5;" width="112" x="294.5" y="116"/><ellipse cx="309.5" cy="132" fill="#ADD1B2" rx="11" ry="11" style="stroke:#A80036;stroke-width:1.0;"/><path d="M311.8438,127.6719 C310.9063,127.2344 310.3125,127.0938 309.4375,127.0938 C306.8125,127.0938 304.8125,129.1719 304.8125,131.8906 L304.8125,133.0156 C304.8125,135.5938 306.9219,137.4844 309.8125,137.4844 C311.0313,137.4844 312.1875,137.1875 312.9375,136.6406 C313.5156,136.2344 313.8438,135.7813 313.8438,135.3906 C313.8438,134.9375 313.4531,134.5469 312.9844,134.5469 C312.7656,134.5469 312.5625,134.625 312.375,134.8125 C311.9219,135.2969 311.9219,135.2969 311.7344,135.3906 C311.3125,135.6563 310.625,135.7813 309.8594,135.7813 C307.8125,135.7813 306.5156,134.6875 306.5156,132.9844 L306.5156,131.8906 C306.5156,130.1094 307.7656,128.7969 309.5,128.7969 C310.0781,128.7969 310.6875,128.9531 311.1563,129.2031 C311.6406,129.4844 311.8125,129.7031 311.9063,130.1094 C311.9688,130.5156 312,130.6406 312.1406,130.7656 C312.2813,130.9063 312.5156,131.0156 312.7344,131.0156 C313,131.0156 313.2656,130.875 313.4375,130.6563 C313.5469,130.5 313.5781,130.3125 313.5781,129.8906 L313.5781,128.4688 C313.5781,128.0313 313.5625,127.9063 313.4688,127.75 C313.3125,127.4844 313.0313,127.3438 312.7344,127.3438 C312.4375,127.3438 312.2344,127.4375 312.0156,127.75 L311.8438,127.6719 Z " fill="#000000"/><text fill="#000000" font-family="sans-serif" font-size="12" lengthAdjust="spacingAndGlyphs" textLength="80" x="323.5" y="136.1543">SomeProduct</text><!--MD5=[b7231c36c7db3d819850d9b05d41f3e4]
class AnotherProduct--><rect codeLine="26" fill="#FEFECE" filter="url(#ff219tmjc75av)" height="32" id="AnotherProduct" style="stroke:#A80036;stroke-width:1.5;" width="124" x="441.5" y="116"/><ellipse cx="456.5" cy="132" fill="#ADD1B2" rx="11" ry="11" style="stroke:#A80036;stroke-width:1.0;"/><path d="M458.8438,127.6719 C457.9063,127.2344 457.3125,127.0938 456.4375,127.0938 C453.8125,127.0938 451.8125,129.1719 451.8125,131.8906 L451.8125,133.0156 C451.8125,135.5938 453.9219,137.4844 456.8125,137.4844 C458.0313,137.4844 459.1875,137.1875 459.9375,136.6406 C460.5156,136.2344 460.8438,135.7813 460.8438,135.3906 C460.8438,134.9375 460.4531,134.5469 459.9844,134.5469 C459.7656,134.5469 459.5625,134.625 459.375,134.8125 C458.9219,135.2969 458.9219,135.2969 458.7344,135.3906 C458.3125,135.6563 457.625,135.7813 456.8594,135.7813 C454.8125,135.7813 453.5156,134.6875 453.5156,132.9844 L453.5156,131.8906 C453.5156,130.1094 454.7656,128.7969 456.5,128.7969 C457.0781,128.7969 457.6875,128.9531 458.1563,129.2031 C458.6406,129.4844 458.8125,129.7031 458.9063,130.1094 C458.9688,130.5156 459,130.6406 459.1406,130.7656 C459.2813,130.9063 459.5156,131.0156 459.7344,131.0156 C460,131.0156 460.2656,130.875 460.4375,130.6563 C460.5469,130.5 460.5781,130.3125 460.5781,129.8906 L460.5781,128.4688 C460.5781,128.0313 460.5625,127.9063 460.4688,127.75 C460.3125,127.4844 460.0313,127.3438 459.7344,127.3438 C459.4375,127.3438 459.2344,127.4375 459.0156,127.75 L458.8438,127.6719 Z " fill="#000000"/><text fill="#000000" font-family="sans-serif" font-size="12" lengthAdjust="spacingAndGlyphs" textLength="92" x="470.5" y="136.1543">AnotherProduct</text><!--MD5=[06871478789e3b38a6cc3594e938e9e2]
reverse link Product to Creator--><path codeLine="9" d="M321.882,41.907 C297.135,57.392 260.754,80.157 230.961,98.799 " fill="none" id="Product-backto-Creator" style="stroke:#A80036;stroke-width:1.0;stroke-dasharray:7.0,7.0;"/><polygon fill="#A80036" points="326.363,39.104,316.6116,40.4858,322.1241,41.7557,320.8542,47.2682,326.363,39.104" style="stroke:#A80036;stroke-width:1.0;"/><!--MD5=[b29ed821bc368e4844a5441cd65c9386]
reverse link Creator to SomeCreator--><path codeLine="14" d="M140.829,180.8295 C128.681,195.8554 115.733,211.8693 105.3188,224.7505 " fill="none" id="Creator-backto-SomeCreator" style="stroke:#A80036;stroke-width:1.0;"/><polygon fill="none" points="135.523,176.259,153.541,165.107,146.41,185.0611,135.523,176.259" style="stroke:#A80036;stroke-width:1.0;"/><!--MD5=[b5dc92dc8a5b8186e7bb73fb7d9c6654]
reverse link Creator to AnotherCreator--><path codeLine="19" d="M218.171,180.8295 C230.319,195.8554 243.267,211.8693 253.681,224.7505 " fill="none" id="Creator-backto-AnotherCreator" style="stroke:#A80036;stroke-width:1.0;"/><polygon fill="none" points="212.59,185.0611,205.459,165.107,223.477,176.259,212.59,185.0611" style="stroke:#A80036;stroke-width:1.0;"/><!--MD5=[49872887d9ad8c3a5c7e7bf3870e2495]
reverse link Product to SomeProduct--><path codeLine="24" d="M350.5,59.454 C350.5,78.537 350.5,101.088 350.5,115.698 " fill="none" id="Product-backto-SomeProduct" style="stroke:#A80036;stroke-width:1.0;stroke-dasharray:7.0,7.0;"/><polygon fill="none" points="343.5,59.331,350.5,39.33,357.5,59.33,343.5,59.331" style="stroke:#A80036;stroke-width:1.0;"/><!--MD5=[fd26ed2fdeedf4d507a227a091651ae3]
reverse link Product to AnotherProduct--><path codeLine="27" d="M388.897,50.853 C418.346,71.448 457.912,99.118 482.013,115.973 " fill="none" id="Product-backto-AnotherProduct" style="stroke:#A80036;stroke-width:1.0;stroke-dasharray:7.0,7.0;"/><polygon fill="none" points="384.475,56.302,372.097,39.104,392.498,44.829,384.475,56.302" style="stroke:#A80036;stroke-width:1.0;"/><!--MD5=[0adb057fd3e0e919b627f2f31f41a060]
@startuml
skinparam classAttributeIconSize 0

hide empty members

abstract class Creator {
    + operation()
    {abstract} + createProduct(): Product
}
Product <.. Creator

class SomeCreator {
    + createProduct(): Product
}
Creator <|- - SomeCreator

class AnotherCreator {
    + createProduct(): Product
}
Creator <|- - AnotherCreator

interface Product

class SomeProduct
Product <|.. SomeProduct

class AnotherProduct
Product <|.. AnotherProduct
@enduml

PlantUML version 1.2020.27beta1(Unknown compile time)
(GPL source distribution)
Java Runtime: Java(TM) SE Runtime Environment
JVM: Java HotSpot(TM) 64-Bit Server VM
Default Encoding: UTF-8
Language: en
Country: US
--></g></svg>