<?xml version="1.0" encoding="UTF-8" standalone="no"?><svg xmlns="http://www.w3.org/2000/svg" xmlns:xlink="http://www.w3.org/1999/xlink" contentScriptType="application/ecmascript" contentStyleType="text/css" height="332px" preserveAspectRatio="none" style="width:266px;height:332px;" version="1.1" viewBox="0 0 266 332" width="266px" zoomAndPan="magnify"><defs><filter height="300%" id="f1ktz96wkmbsog" width="300%" x="-1" y="-1"><feGaussianBlur result="blurOut" stdDeviation="2.0"/><feColorMatrix in="blurOut" result="blurOut2" type="matrix" values="0 0 0 0 0 0 0 0 0 0 0 0 0 0 0 0 0 0 .4 0"/><feOffset dx="4.0" dy="4.0" in="blurOut2" result="blurOut3"/><feBlend in="SourceGraphic" in2="blurOut3" mode="normal"/></filter></defs><g><!--MD5=[d0da0a299942266ebd64acf2b2e95fa4]
class Subject--><rect codeLine="5" fill="#FEFECE" filter="url(#f1ktz96wkmbsog)" height="52.8047" id="Subject" style="stroke:#A80036;stroke-width:1.5;" width="83" x="31.5" y="7"/><ellipse cx="48.75" cy="23" fill="#B4A7E5" rx="11" ry="11" style="stroke:#A80036;stroke-width:1.0;"/><path d="M49.7031,19.7813 L51.4219,19.7813 C51.8125,19.7813 52,19.75 52.125,19.6719 C52.3906,19.5156 52.5313,19.2344 52.5313,18.9375 C52.5313,18.6719 52.4219,18.4063 52.1875,18.2344 C52.0156,18.125 51.875,18.0938 51.4219,18.0938 L46.2813,18.0938 C45.8438,18.0938 45.7188,18.1094 45.5625,18.2031 C45.3125,18.3594 45.1563,18.6563 45.1563,18.9375 C45.1563,19.2188 45.2969,19.4688 45.5156,19.6406 C45.6719,19.75 45.8594,19.7813 46.2813,19.7813 L48,19.7813 L48,26.2969 L46.2813,26.2969 C45.8438,26.2969 45.7188,26.3125 45.5625,26.4219 C45.3125,26.5781 45.1563,26.8594 45.1563,27.1563 C45.1563,27.4063 45.2969,27.6719 45.5156,27.8281 C45.6719,27.9531 45.875,28 46.2813,28 L51.4219,28 C52.1719,28 52.5313,27.7188 52.5313,27.1563 C52.5313,26.875 52.4219,26.625 52.1875,26.4531 C52.0156,26.3281 51.875,26.2969 51.4219,26.2969 L49.7031,26.2969 L49.7031,19.7813 Z " fill="#000000"/><text fill="#000000" font-family="sans-serif" font-size="12" font-style="italic" lengthAdjust="spacingAndGlyphs" textLength="46" x="63.25" y="27.1543">Subject</text><line style="stroke:#A80036;stroke-width:1.5;" x1="32.5" x2="113.5" y1="39" y2="39"/><text fill="#000000" font-family="sans-serif" font-size="11" lengthAdjust="spacingAndGlyphs" textLength="71" x="37.5" y="53.2104">+operation()</text><!--MD5=[9182b206835a43bc1550ae1fc8c5ab74]
class ConcreteSubject--><rect codeLine="11" fill="#FEFECE" filter="url(#f1ktz96wkmbsog)" height="52.8047" id="ConcreteSubject" style="stroke:#A80036;stroke-width:1.5;" width="132" x="7" y="266"/><ellipse cx="22" cy="282" fill="#ADD1B2" rx="11" ry="11" style="stroke:#A80036;stroke-width:1.0;"/><path d="M24.3438,277.6719 C23.4063,277.2344 22.8125,277.0938 21.9375,277.0938 C19.3125,277.0938 17.3125,279.1719 17.3125,281.8906 L17.3125,283.0156 C17.3125,285.5938 19.4219,287.4844 22.3125,287.4844 C23.5313,287.4844 24.6875,287.1875 25.4375,286.6406 C26.0156,286.2344 26.3438,285.7813 26.3438,285.3906 C26.3438,284.9375 25.9531,284.5469 25.4844,284.5469 C25.2656,284.5469 25.0625,284.625 24.875,284.8125 C24.4219,285.2969 24.4219,285.2969 24.2344,285.3906 C23.8125,285.6563 23.125,285.7813 22.3594,285.7813 C20.3125,285.7813 19.0156,284.6875 19.0156,282.9844 L19.0156,281.8906 C19.0156,280.1094 20.2656,278.7969 22,278.7969 C22.5781,278.7969 23.1875,278.9531 23.6563,279.2031 C24.1406,279.4844 24.3125,279.7031 24.4063,280.1094 C24.4688,280.5156 24.5,280.6406 24.6406,280.7656 C24.7813,280.9063 25.0156,281.0156 25.2344,281.0156 C25.5,281.0156 25.7656,280.875 25.9375,280.6563 C26.0469,280.5 26.0781,280.3125 26.0781,279.8906 L26.0781,278.4688 C26.0781,278.0313 26.0625,277.9063 25.9688,277.75 C25.8125,277.4844 25.5313,277.3438 25.2344,277.3438 C24.9375,277.3438 24.7344,277.4375 24.5156,277.75 L24.3438,277.6719 Z " fill="#000000"/><text fill="#000000" font-family="sans-serif" font-size="12" lengthAdjust="spacingAndGlyphs" textLength="100" x="36" y="286.1543">ConcreteSubject</text><line style="stroke:#A80036;stroke-width:1.5;" x1="8" x2="138" y1="298" y2="298"/><text fill="#000000" font-family="sans-serif" font-size="11" lengthAdjust="spacingAndGlyphs" textLength="74" x="13" y="312.2104">+operation();</text><!--MD5=[f7109e258b7e3e4bb390e34b115b99ce]
class Proxy--><rect codeLine="15" fill="#FEFECE" filter="url(#f1ktz96wkmbsog)" height="86.4141" id="Proxy" style="stroke:#A80036;stroke-width:1.5;" width="203" x="49.5" y="120"/><ellipse cx="130.25" cy="136" fill="#ADD1B2" rx="11" ry="11" style="stroke:#A80036;stroke-width:1.0;"/><path d="M132.5938,131.6719 C131.6563,131.2344 131.0625,131.0938 130.1875,131.0938 C127.5625,131.0938 125.5625,133.1719 125.5625,135.8906 L125.5625,137.0156 C125.5625,139.5938 127.6719,141.4844 130.5625,141.4844 C131.7813,141.4844 132.9375,141.1875 133.6875,140.6406 C134.2656,140.2344 134.5938,139.7813 134.5938,139.3906 C134.5938,138.9375 134.2031,138.5469 133.7344,138.5469 C133.5156,138.5469 133.3125,138.625 133.125,138.8125 C132.6719,139.2969 132.6719,139.2969 132.4844,139.3906 C132.0625,139.6563 131.375,139.7813 130.6094,139.7813 C128.5625,139.7813 127.2656,138.6875 127.2656,136.9844 L127.2656,135.8906 C127.2656,134.1094 128.5156,132.7969 130.25,132.7969 C130.8281,132.7969 131.4375,132.9531 131.9063,133.2031 C132.3906,133.4844 132.5625,133.7031 132.6563,134.1094 C132.7188,134.5156 132.75,134.6406 132.8906,134.7656 C133.0313,134.9063 133.2656,135.0156 133.4844,135.0156 C133.75,135.0156 134.0156,134.875 134.1875,134.6563 C134.2969,134.5 134.3281,134.3125 134.3281,133.8906 L134.3281,132.4688 C134.3281,132.0313 134.3125,131.9063 134.2188,131.75 C134.0625,131.4844 133.7813,131.3438 133.4844,131.3438 C133.1875,131.3438 132.9844,131.4375 132.7656,131.75 L132.5938,131.6719 Z " fill="#000000"/><text fill="#000000" font-family="sans-serif" font-size="12" lengthAdjust="spacingAndGlyphs" textLength="33" x="150.75" y="140.1543">Proxy</text><line style="stroke:#A80036;stroke-width:1.5;" x1="50.5" x2="251.5" y1="152" y2="152"/><text fill="#000000" font-family="sans-serif" font-size="11" lengthAdjust="spacingAndGlyphs" textLength="147" x="55.5" y="166.2104">-subject: ConcreteSubject</text><line style="stroke:#A80036;stroke-width:1.5;" x1="50.5" x2="251.5" y1="172.8047" y2="172.8047"/><text fill="#000000" font-family="sans-serif" font-size="11" lengthAdjust="spacingAndGlyphs" textLength="191" x="55.5" y="187.0151">+Proxy(subject: ConcreteSubject)</text><text fill="#000000" font-family="sans-serif" font-size="11" lengthAdjust="spacingAndGlyphs" textLength="71" x="55.5" y="199.8198">+operation()</text><!--MD5=[add3666d1eb41a24e12d4ec983519b17]
reverse link Subject to ConcreteSubject--><path codeLine="8" d="M47.5007,78.082 C41.1519,91.129 35.237,105.763 32,120 C23.5257,157.271 23.5257,168.729 32,206 C36.8178,227.1893 47.5679,249.2589 56.8517,265.6675 " fill="none" id="Subject-backto-ConcreteSubject" style="stroke:#A80036;stroke-width:1.0;stroke-dasharray:7.0,7.0;"/><polygon fill="none" points="41.3365,74.764,56.8517,60.333,53.7228,81.29,41.3365,74.764" style="stroke:#A80036;stroke-width:1.0;"/><!--MD5=[3c3c3ce047c26dc485554d65ad2bca9c]
reverse link Subject to Proxy--><path codeLine="9" d="M99.4528,77.74 C107.786,91.362 116.976,106.383 125.259,119.923 " fill="none" id="Subject-backto-Proxy" style="stroke:#A80036;stroke-width:1.0;stroke-dasharray:7.0,7.0;"/><polygon fill="none" points="93.2504,81.015,88.7845,60.302,105.1929,73.709,93.2504,81.015" style="stroke:#A80036;stroke-width:1.0;"/><!--MD5=[696392ec8f6a14789e446f198c9e4a0a]
reverse link Proxy to ConcreteSubject--><path codeLine="20" d="M118.288,217.472 C108.052,234.2042 97.2217,251.9068 88.7199,265.8039 " fill="none" id="Proxy-backto-ConcreteSubject" style="stroke:#A80036;stroke-width:1.0;stroke-dasharray:7.0,7.0;"/><polygon fill="#FFFFFF" points="125.244,206.102,118.7009,209.1332,118.9823,216.3388,125.5254,213.3076,125.244,206.102" style="stroke:#A80036;stroke-width:1.0;"/><!--MD5=[617799fec427e2dd7a3ac5ad406761ba]
@startuml
skinparam classAttributeIconSize 0

hide empty members

interface Subject {
    + operation()
}
Subject <|.. ConcreteSubject
Subject <|.. Proxy

class ConcreteSubject {
    + operation();
}

class Proxy {
    - subject: ConcreteSubject
    + Proxy(subject: ConcreteSubject)
    + operation()
}
Proxy o.. ConcreteSubject
@enduml

PlantUML version 1.2020.27beta1(Unknown compile time)
(GPL source distribution)
Java Runtime: Java(TM) SE Runtime Environment
JVM: Java HotSpot(TM) 64-Bit Server VM
Default Encoding: UTF-8
Language: en
Country: US
--></g></svg>